<svg xmlns="http://www.w3.org/2000/svg" viewBox="0 0 587.66 439.7"><defs><style>.cls-1{fill:#ecc564;}.cls-2{fill:#fff;}.cls-3{fill:#aebdc1;}.cls-4{fill:#414042;}.cls-5{fill:#fed756;}.cls-6{fill:#85b199;}.cls-20,.cls-7{fill:none;}.cls-8{fill:#897e92;}.cls-9{fill:#6c6c6c;}.cls-10{fill:#d1d3d4;}.cls-11{fill:#52425f;}.cls-12{fill:#f8f9f9;}.cls-13{fill:#c2cdd0;}.cls-14{fill:#93a7ad;}.cls-15{fill:#f7941e;}.cls-16{fill:#a98b80;}.cls-17{fill:#fbf8f1;}.cls-18{fill:#655771;}.cls-19{fill:#feebd9;}.cls-20{stroke:#414042;stroke-linecap:round;stroke-linejoin:round;stroke-width:3px;}.cls-21{fill:#ffa9a7;}.cls-22{opacity:0.6;}.cls-23{fill:#595959;}.cls-24{fill:#845b71;}.cls-25{fill:#ff824a;}.cls-26{fill:#5f5f5f;}.cls-27{fill:#7a7a7a;}</style></defs><title>registration</title><g id="Layer_2" data-name="Layer 2"><g id="Layer_2-2" data-name="Layer 2"><path class="cls-1" d="M283.91,34A2.24,2.24,0,0,0,282,32.63l-21.91-1.4h0a2.23,2.23,0,0,0-.51,0l-.12,0a2.3,2.3,0,0,0-.3.08l-9.85,3.92L130.06,82.75a2,2,0,0,0-.34.18,5.68,5.68,0,0,0-.61.2l-7,2.78a6.35,6.35,0,0,0-3.55,8.24l3.92,9.86a6.34,6.34,0,0,0,8.24,3.55l7-2.78a5.71,5.71,0,0,0,.68-.33,2.3,2.3,0,0,0,.27-.05L257.85,57,267.7,53l0,0,.2-.1.21-.12.15-.12.2-.17,0,0,15-16.08A2.24,2.24,0,0,0,283.91,34Z"/><path class="cls-1" d="M522.52,93.2,383,46.53a2.24,2.24,0,0,0-2.84,1.41L368.8,82a2.24,2.24,0,0,0,1.42,2.84l35,11.72h0l17.19,5.75,34.38,11.5h0L474,119.57h0l18.16,6.07h0l17.51,5.86a2.24,2.24,0,0,0,2.84-1.41L523.94,96A2.24,2.24,0,0,0,522.52,93.2Z"/><path class="cls-1" d="M441.17,179.48a2.61,2.61,0,0,0-3.4-1.46l-13.68,5.46a40.5,40.5,0,0,0-9.85-10.31l5.51-12.83a2.62,2.62,0,0,0-1.37-3.43l-12.43-5.34a2.61,2.61,0,0,0-3.44,1.37l-5.57,13a40.26,40.26,0,0,0-13.54.11l-5.47-13.71a2.62,2.62,0,0,0-3.4-1.46l-12.57,5a2.61,2.61,0,0,0-1.46,3.4l5.68,14.21a39.84,39.84,0,0,0-8.16,8.2l-13.46-5.78a2.62,2.62,0,0,0-3.44,1.37l-5.34,12.43a2.62,2.62,0,0,0,1.37,3.44l13.46,5.78a40.14,40.14,0,0,0-.52,9.39l-15.89,6.35a2.61,2.61,0,0,0-1.46,3.4l5,12.57a2.61,2.61,0,0,0,3.4,1.46l14.42-5.76A40.5,40.5,0,0,0,366,238L360.5,250.8a2.62,2.62,0,0,0,1.37,3.44l12.43,5.34a2.62,2.62,0,0,0,3.44-1.37l5.42-12.63a40.26,40.26,0,0,0,13.07.26l4.78,12a2.61,2.61,0,0,0,3.4,1.46l12.57-5a2.61,2.61,0,0,0,1.46-3.4l-4.76-11.94a39.86,39.86,0,0,0,9.18-8.94l13.53,5.81a2.61,2.61,0,0,0,3.44-1.37L445.15,222a2.62,2.62,0,0,0-1.37-3.44l-13.53-5.81a39.93,39.93,0,0,0,.32-11.6l14.16-5.66a2.61,2.61,0,0,0,1.46-3.4Z"/><path class="cls-1" d="M534.76,209.16l-3.56-8.92a2.24,2.24,0,0,0-2.91-1.25l-9.41,3.76a29.13,29.13,0,0,0-6.66-7L516,187a2.24,2.24,0,0,0-1.17-2.94L506,180.23a2.24,2.24,0,0,0-2.94,1.18l-3.84,8.93a28.89,28.89,0,0,0-9.13.07L486.34,181a2.25,2.25,0,0,0-2.91-1.25l-8.92,3.56a2.24,2.24,0,0,0-1.25,2.91l3.92,9.81a28.65,28.65,0,0,0-5.45,5.47l-9.27-4a2.24,2.24,0,0,0-2.94,1.17l-3.79,8.82a2.24,2.24,0,0,0,1.17,2.94l9.27,4a29,29,0,0,0-.34,6.17l-11,4.4a2.24,2.24,0,0,0-1.25,2.91l3.56,8.92a2.24,2.24,0,0,0,2.91,1.25l9.93-4A29.14,29.14,0,0,0,477,242l-3.77,8.79a2.24,2.24,0,0,0,1.17,2.94l8.82,3.79a2.24,2.24,0,0,0,2.94-1.17l3.73-8.68a29,29,0,0,0,8.79.17l3.27,8.21a2.25,2.25,0,0,0,2.91,1.25l8.92-3.56a2.25,2.25,0,0,0,1.25-2.91l-3.27-8.19a28.58,28.58,0,0,0,6.17-6l9.32,4a2.24,2.24,0,0,0,2.94-1.17l3.79-8.82a2.24,2.24,0,0,0-1.17-2.94l-9.32-4a28.61,28.61,0,0,0,.21-7.75l9.77-3.91A2.24,2.24,0,0,0,534.76,209.16Z"/><path class="cls-1" d="M531.54,319.2h-26a65.05,65.05,0,0,0-8-20.1l19-19a2.61,2.61,0,0,0,0-3.7l-16-16a2.61,2.61,0,0,0-3.7,0l-18.45,18.46a66,66,0,0,0-23.94-10.19V243.86a2.62,2.62,0,0,0-2.62-2.62H429.16a2.62,2.62,0,0,0-2.62,2.62v25a64.89,64.89,0,0,0-22.73,10l-13-13a74.72,74.72,0,0,0,10-37.28V188.94a75,75,0,0,0-144-29.68l-2.39.57a98.69,98.69,0,0,0-167.72,90.8,100.08,100.08,0,0,0,3,10.2,20.73,20.73,0,0,0-18.28,20.56v5.67l-3.76.9a2.62,2.62,0,0,0,.61,5.16,2.64,2.64,0,0,0,.61-.07l2.54-.61v4.69a20.67,20.67,0,0,0,7.88,16.23H58.58a20.74,20.74,0,0,0-20.71,20.71V349.8a20.74,20.74,0,0,0,20.71,20.71H96.38a20.67,20.67,0,0,0-7.88,16.23v15.73a20.74,20.74,0,0,0,20.71,20.71h127.7V429a51.5,51.5,0,0,0,.41,6.25,2.24,2.24,0,0,0,2.23,2H412a2.24,2.24,0,0,0,2.23-2,51.21,51.21,0,0,0,.42-6.25V393.47a65.93,65.93,0,0,0,11.86,3.93v24.67a2.61,2.61,0,0,0,2.62,2.62h22.64a2.61,2.61,0,0,0,2.62-2.62V397.64a64.9,64.9,0,0,0,22.28-9.05l16.24,16.24a2.61,2.61,0,0,0,3.7,0l16-16a2.61,2.61,0,0,0,0-3.7L496.45,368.9a65,65,0,0,0,9-21.83h26a2.61,2.61,0,0,0,2.62-2.62V321.82A2.61,2.61,0,0,0,531.54,319.2Z"/><path class="cls-2" d="M307.17,341h0c-4.42-.1-8.87-.37-13.25-.82a1.12,1.12,0,1,1,.22-2.23c4.31.44,8.71.71,13.07.8a1.12,1.12,0,0,1,0,2.24Zm13.18-.22a1.12,1.12,0,0,1-.06-2.24c4.35-.24,8.73-.67,13-1.25a1.12,1.12,0,0,1,.3,2.22c-4.36.59-8.8,1-13.21,1.27ZM281,338.33l-.2,0c-4.34-.79-8.7-1.77-13-2.91a1.12,1.12,0,1,1,.58-2.17c4.2,1.12,8.49,2.09,12.78,2.87a1.12,1.12,0,0,1-.2,2.22Zm65.5-1.12a1.12,1.12,0,0,1-.24-2.22c4.25-.93,8.51-2,12.67-3.31a1.12,1.12,0,1,1,.65,2.14c-4.22,1.28-8.54,2.41-12.85,3.36Zm-91-5.67a1.11,1.11,0,0,1-.38-.06c-4.16-1.48-8.31-3.14-12.33-4.95a1.12,1.12,0,1,1,.92-2c4,1.78,8.06,3.42,12.16,4.88a1.12,1.12,0,0,1-.38,2.18Zm116.16-2a1.12,1.12,0,0,1-.41-2.16c4-1.6,8.07-3.38,12-5.29a1.12,1.12,0,0,1,1,2c-3.95,1.94-8,3.74-12.13,5.36A1.11,1.11,0,0,1,371.67,329.53Zm-140.23-8.78a1.11,1.11,0,0,1-.54-.14c-3.86-2.12-7.7-4.42-11.38-6.84a1.12,1.12,0,0,1,1.23-1.87c3.64,2.39,7.42,4.66,11.23,6.75a1.12,1.12,0,0,1-.54,2.1Zm163.87-2.81a1.12,1.12,0,0,1-.57-2.08c3.73-2.22,7.43-4.61,11-7.13a1.12,1.12,0,1,1,1.29,1.83c-3.6,2.55-7.35,5-11.13,7.23A1.12,1.12,0,0,1,395.31,317.93ZM209.41,306.27a1.11,1.11,0,0,1-.69-.24c-3.48-2.7-6.89-5.58-10.15-8.56a1.12,1.12,0,0,1,1.51-1.65c3.22,2.94,6.58,5.78,10,8.44a1.12,1.12,0,0,1-.69,2Zm207.42-3.55a1.12,1.12,0,0,1-.72-2c3.34-2.78,6.61-5.74,9.72-8.78a1.12,1.12,0,0,1,1.57,1.6c-3.15,3.08-6.47,6.08-9.85,8.9A1.12,1.12,0,0,1,416.82,302.72ZM189.95,288.5a1.12,1.12,0,0,1-.82-.36c-3-3.22-5.92-6.6-8.67-10.05a1.12,1.12,0,0,1,1.75-1.4c2.71,3.41,5.59,6.74,8.56,9.92a1.12,1.12,0,0,1-.82,1.89Zm245.72-4.2a1.12,1.12,0,0,1-.84-1.86c2.86-3.27,5.62-6.71,8.22-10.2a1.12,1.12,0,1,1,1.8,1.34c-2.63,3.54-5.43,7-8.33,10.34A1.11,1.11,0,0,1,435.67,284.3ZM173.54,267.88a1.12,1.12,0,0,1-.93-.49c-2.46-3.66-4.81-7.46-7-11.29a1.12,1.12,0,1,1,2-1.1c2.13,3.78,4.45,7.53,6.88,11.14a1.12,1.12,0,0,1-.93,1.75Zm277.83-4.76a1.11,1.11,0,0,1-.59-.17,1.12,1.12,0,0,1-.36-1.54c2.31-3.69,4.49-7.52,6.5-11.38a1.12,1.12,0,0,1,2,1c-2,3.91-4.25,7.79-6.59,11.53A1.12,1.12,0,0,1,451.37,263.13ZM160.6,244.94a1.12,1.12,0,0,1-1-.65c-1.85-4-3.56-8.11-5.08-12.25a1.12,1.12,0,1,1,2.1-.78c1.51,4.08,3.2,8.15,5,12.09a1.12,1.12,0,0,1-1,1.59Zm302.92-5.21a1.1,1.1,0,0,1-.43-.09,1.12,1.12,0,0,1-.6-1.47c1.69-4,3.24-8.14,4.6-12.27a1.12,1.12,0,1,1,2.13.7c-1.38,4.19-2.95,8.37-4.66,12.44A1.12,1.12,0,0,1,463.52,239.73Zm-312-19.5a1.12,1.12,0,0,1-1.08-.82c-1.19-4.25-2.22-8.6-3.06-12.92a1.12,1.12,0,1,1,2.2-.43c.83,4.26,1.84,8.54,3,12.74a1.12,1.12,0,0,1-1.08,1.42Zm320.29-5.53a1.15,1.15,0,0,1-.27,0,1.12,1.12,0,0,1-.82-1.35c1-4.22,1.89-8.54,2.58-12.84a1.12,1.12,0,1,1,2.21.35c-.69,4.36-1.57,8.74-2.61,13A1.12,1.12,0,0,1,471.78,214.69ZM146.44,194.37a1.12,1.12,0,0,1-1.11-1c-.5-4.37-.82-8.82-1-13.24a1.12,1.12,0,0,1,1.08-1.16,1.07,1.07,0,0,1,1.16,1.08c.15,4.36.47,8.75,1,13.06a1.12,1.12,0,0,1-1,1.24Zm329.49-5.69h-.09a1.12,1.12,0,0,1-1-1.21c.34-4.31.51-8.72.51-13.09,0-3.78-.13-7.6-.39-11.36a1.12,1.12,0,0,1,1-1.19,1.14,1.14,0,0,1,1.19,1c.26,3.81.39,7.68.39,11.51,0,4.43-.18,8.89-.52,13.26A1.12,1.12,0,0,1,475.93,188.68ZM145.54,168h-.05a1.12,1.12,0,0,1-1.07-1.17c.2-4.4.57-8.85,1.11-13.23a1.12,1.12,0,0,1,2.22.28c-.53,4.32-.9,8.71-1.1,13A1.12,1.12,0,0,1,145.54,168ZM474.63,151a1.12,1.12,0,0,1-1.11-1c-.64-4.3-1.46-8.63-2.44-12.87a1.12,1.12,0,0,1,2.18-.5c1,4.3,1.83,8.69,2.47,13a1.12,1.12,0,0,1-.94,1.27Zm-325.84-9.08-.23,0a1.12,1.12,0,0,1-.87-1.32c.89-4.32,2-8.65,3.2-12.88a1.12,1.12,0,1,1,2.15.63c-1.22,4.17-2.28,8.45-3.16,12.71A1.12,1.12,0,0,1,148.79,141.89Zm319.9-16.59a1.12,1.12,0,0,1-1.07-.78c-1.31-4.14-2.82-8.28-4.47-12.31a1.12,1.12,0,1,1,2.08-.85c1.67,4.09,3.19,8.28,4.53,12.48a1.12,1.12,0,0,1-1.07,1.46Zm-312.52-8.71a1.11,1.11,0,0,1-.4-.07,1.12,1.12,0,0,1-.65-1.45c1.57-4.12,3.33-8.23,5.22-12.22a1.12,1.12,0,0,1,2,1c-1.87,3.94-3.61,8-5.15,12.05A1.12,1.12,0,0,1,156.17,116.59Zm302.56-15.68a1.12,1.12,0,0,1-1-.61c-2-3.88-4.11-7.73-6.37-11.44a1.12,1.12,0,0,1,1.91-1.17c2.29,3.76,4.46,7.66,6.45,11.59a1.12,1.12,0,0,1-1,1.63ZM167.49,92.78a1.12,1.12,0,0,1-1-1.68c2.21-3.82,4.6-7.6,7.1-11.22a1.12,1.12,0,0,1,1.84,1.27c-2.47,3.58-4.82,7.3-7,11.07A1.12,1.12,0,0,1,167.49,92.78ZM445,78.43a1.12,1.12,0,0,1-.91-.46c-2.56-3.52-5.28-7-8.1-10.29a1.12,1.12,0,1,1,1.7-1.46c2.86,3.35,5.62,6.86,8.21,10.43a1.12,1.12,0,0,1-.91,1.78ZM182.46,71.08a1.12,1.12,0,0,1-.87-1.83c2.79-3.42,5.74-6.77,8.78-10A1.12,1.12,0,1,1,192,60.84c-3,3.14-5.91,6.44-8.66,9.82A1.12,1.12,0,0,1,182.46,71.08ZM427.89,58.39a1.12,1.12,0,0,1-.79-.33C424,55,420.79,52,417.47,49.17a1.12,1.12,0,1,1,1.45-1.71c3.36,2.86,6.64,5.89,9.76,9a1.12,1.12,0,0,1-.79,1.91ZM200.66,52a1.12,1.12,0,0,1-.75-2c3.29-2.94,6.74-5.79,10.24-8.45a1.12,1.12,0,1,1,1.36,1.78c-3.46,2.62-6.86,5.43-10.1,8.33A1.12,1.12,0,0,1,200.66,52ZM407.83,41.29a1.12,1.12,0,0,1-.66-.21c-3.53-2.55-7.2-5-10.91-7.25a1.12,1.12,0,1,1,1.16-1.91c3.76,2.29,7.48,4.76,11.06,7.35a1.12,1.12,0,0,1-.66,2ZM221.64,36.08A1.12,1.12,0,0,1,221,34c3.72-2.38,7.57-4.64,11.45-6.72a1.12,1.12,0,0,1,1.06,2c-3.82,2-7.62,4.27-11.29,6.62A1.12,1.12,0,0,1,221.64,36.08Zm163.66-8.49a1.12,1.12,0,0,1-.5-.12c-3.89-2-7.91-3.79-11.93-5.42a1.12,1.12,0,0,1,.85-2.08c4.08,1.66,8.15,3.51,12.09,5.5a1.12,1.12,0,0,1-.51,2.12ZM244.87,23.67a1.12,1.12,0,0,1-.45-2.15c4-1.76,8.2-3.38,12.36-4.81a1.12,1.12,0,0,1,.73,2.12c-4.1,1.41-8.21,3-12.19,4.74A1.12,1.12,0,0,1,244.87,23.67Zm116-6a1.11,1.11,0,0,1-.34-.05c-4.15-1.31-8.4-2.47-12.63-3.44a1.12,1.12,0,0,1,.5-2.18c4.29,1,8.6,2.16,12.81,3.49a1.12,1.12,0,0,1-.34,2.19Zm-91.1-2.53a1.12,1.12,0,0,1-.28-2.21c4.27-1.09,8.63-2,13-2.77a1.12,1.12,0,0,1,.38,2.21c-4.29.74-8.6,1.66-12.81,2.73A1.11,1.11,0,0,1,269.78,15.12Zm65.42-3.38H335c-4.29-.63-8.67-1.1-13-1.39a1.12,1.12,0,0,1-1-1.19,1.14,1.14,0,0,1,1.19-1c4.41.29,8.85.77,13.2,1.41a1.12,1.12,0,0,1-.16,2.23Zm-39.46-1.09a1.12,1.12,0,0,1-.1-2.24c4.39-.4,8.85-.63,13.26-.68h0a1.12,1.12,0,0,1,0,2.24c-4.35.05-8.75.28-13.08.67Z"/><path class="cls-2" d="M310.91,280.26c-2.31,0-4.65-.08-7-.22a1.12,1.12,0,0,1,.15-2.24,105.8,105.8,0,0,0,13,0,1.14,1.14,0,0,1,1.19,1.05,1.12,1.12,0,0,1-1.05,1.19C315.16,280.2,313,280.26,310.91,280.26Zm19.37-1.79a1.12,1.12,0,0,1-.2-2.22,103.34,103.34,0,0,0,12.64-3.2,1.12,1.12,0,1,1,.69,2.13,105.41,105.41,0,0,1-12.91,3.27ZM291,278.36l-.21,0a105.74,105.74,0,0,1-12.9-3.35,1.12,1.12,0,1,1,.7-2.13,103.53,103.53,0,0,0,12.62,3.27,1.12,1.12,0,0,1-.21,2.22Zm64.38-8a1.12,1.12,0,0,1-.48-2.14A103.6,103.6,0,0,0,366.28,262a1.12,1.12,0,0,1,1.2,1.89,106,106,0,0,1-11.68,6.4A1.11,1.11,0,0,1,355.33,270.41Zm-89.38-.26a1.12,1.12,0,0,1-.48-.11,106.32,106.32,0,0,1-11.65-6.47,1.12,1.12,0,1,1,1.21-1.89,103.8,103.8,0,0,0,11.4,6.34,1.12,1.12,0,0,1-.48,2.13Zm111.6-13.81a1.12,1.12,0,0,1-.71-2,104.88,104.88,0,0,0,9.52-8.91A1.12,1.12,0,1,1,388,247a107.28,107.28,0,0,1-9.72,9.1A1.11,1.11,0,0,1,377.55,256.34Zm-133.75-.39a1.11,1.11,0,0,1-.72-.26,106.62,106.62,0,0,1-9.67-9.16A1.12,1.12,0,0,1,235,245a104.39,104.39,0,0,0,9.47,9,1.12,1.12,0,0,1-.72,2Zm151.79-18.76a1.12,1.12,0,0,1-.9-1.78,104.38,104.38,0,0,0,7-11,1.12,1.12,0,1,1,2,1.08,106,106,0,0,1-7.16,11.24A1.12,1.12,0,0,1,395.59,237.19Zm-169.72-.5a1.12,1.12,0,0,1-.91-.47A106.66,106.66,0,0,1,217.86,225a1.12,1.12,0,1,1,2-1.07,104.74,104.74,0,0,0,6.94,11,1.12,1.12,0,0,1-.91,1.78Zm182.44-22.54a1.12,1.12,0,0,1-1-1.53,103.33,103.33,0,0,0,4-12.41,1.12,1.12,0,1,1,2.17.56,105.5,105.5,0,0,1-4.12,12.68A1.12,1.12,0,0,1,408.31,214.15Zm-195-.55a1.12,1.12,0,0,1-1-.71,105,105,0,0,1-4-12.69,1.12,1.12,0,1,1,2.17-.54,103.06,103.06,0,0,0,4,12.42,1.12,1.12,0,0,1-1,1.53Zm201.56-24.94h-.14a1.12,1.12,0,0,1-1-1.25,105.17,105.17,0,0,0,.81-13,1.12,1.12,0,1,1,2.24,0,107.38,107.38,0,0,1-.83,13.29A1.12,1.12,0,0,1,414.85,188.66Zm-208-.58a1.12,1.12,0,0,1-1.11-1,107.5,107.5,0,0,1-.75-12.71v-.59a1.12,1.12,0,0,1,1.12-1.11h0a1.12,1.12,0,0,1,1.11,1.13v.57a104.9,104.9,0,0,0,.74,12.44,1.12,1.12,0,0,1-1,1.25ZM415,163.51a1.12,1.12,0,0,1-1.11-1,103.49,103.49,0,0,0-2.29-12.84,1.12,1.12,0,0,1,2.18-.53,105.5,105.5,0,0,1,2.34,13.11,1.12,1.12,0,0,1-1,1.24ZM207,161.77h-.15a1.12,1.12,0,0,1-1-1.26,105.71,105.71,0,0,1,2.56-13.07,1.12,1.12,0,1,1,2.17.57,103.2,103.2,0,0,0-2.5,12.79A1.12,1.12,0,0,1,207,161.77ZM408.74,138a1.12,1.12,0,0,1-1-.72,103.4,103.4,0,0,0-5.43-11.84,1.12,1.12,0,1,1,2-1.06,105.72,105.72,0,0,1,5.55,12.1,1.12,1.12,0,0,1-1,1.52Zm-195-1.64a1.12,1.12,0,0,1-1-1.54,105.86,105.86,0,0,1,5.76-12,1.12,1.12,0,1,1,2,1.09,103.79,103.79,0,0,0-5.64,11.76A1.12,1.12,0,0,1,213.72,136.32Zm182.57-21.53a1.12,1.12,0,0,1-.91-.47,104.55,104.55,0,0,0-8.21-10.13,1.12,1.12,0,1,1,1.65-1.52A106.66,106.66,0,0,1,397.21,113a1.12,1.12,0,0,1-.26,1.56A1.11,1.11,0,0,1,396.29,114.79Zm-169.72-1.44a1.12,1.12,0,0,1-.9-1.79,107,107,0,0,1,8.57-10.2,1.12,1.12,0,1,1,1.62,1.55,104.81,104.81,0,0,0-8.39,10A1.12,1.12,0,0,1,226.57,113.35Zm151.9-17.91a1.12,1.12,0,0,1-.72-.26,104.48,104.48,0,0,0-10.47-7.78,1.12,1.12,0,1,1,1.22-1.88,107,107,0,0,1,10.7,7.94,1.12,1.12,0,0,1-.72,2ZM244.72,94.3a1.12,1.12,0,0,1-.71-2,106.52,106.52,0,0,1,10.83-7.76,1.12,1.12,0,0,1,1.19,1.9A104.13,104.13,0,0,0,245.43,94,1.12,1.12,0,0,1,244.72,94.3ZM356.4,81.11a1.12,1.12,0,0,1-.49-.11,103.37,103.37,0,0,0-12.08-4.92,1.12,1.12,0,0,1,.71-2.13,105.78,105.78,0,0,1,12.35,5,1.12,1.12,0,0,1-.49,2.13ZM267,80.35a1.12,1.12,0,0,1-.47-2.14A105.55,105.55,0,0,1,279,73.4a1.12,1.12,0,0,1,.67,2.14,103.36,103.36,0,0,0-12.16,4.71A1.11,1.11,0,0,1,267,80.35Zm64.42-7.6-.22,0A103.9,103.9,0,0,0,318.29,71a1.12,1.12,0,1,1,.16-2.24,106.34,106.34,0,0,1,13.2,1.77,1.12,1.12,0,0,1-.22,2.22Zm-39.34-.33a1.12,1.12,0,0,1-.2-2.22,106.65,106.65,0,0,1,13.23-1.55,1.12,1.12,0,1,1,.12,2.24,104.42,104.42,0,0,0-13,1.51Z"/><path class="cls-3" d="M516.72,346.93V324.29H488.53a62.85,62.85,0,0,0-9.15-23.09l20.47-20.49-16-16-20,20A62.85,62.85,0,0,0,437,273.29v-27H414.34v27.16a62.82,62.82,0,0,0-25.63,11.28L368.66,264.7l-16,16,20.55,20.54a62.77,62.77,0,0,0-9.12,23H336v22.64h28.06a63.05,63.05,0,0,0,7.23,20l-22.54,22.54,16,16,21.11-21.12a63.07,63.07,0,0,0,28.44,13.42v26.79H437v-26.6a62.84,62.84,0,0,0,25.23-10.25L480,405.44l16-16L478.26,371.7a62.9,62.9,0,0,0,10.27-24.77Z"/><path class="cls-4" d="M437,427.15H414.34a2.62,2.62,0,0,1-2.62-2.62V399.87a66,66,0,0,1-25.63-12l-19.46,19.47a2.69,2.69,0,0,1-3.7,0l-16-16a2.61,2.61,0,0,1,0-3.7l21.15-21.15a65.51,65.51,0,0,1-6.14-16.88H336a2.62,2.62,0,0,1-2.62-2.62V324.29a2.62,2.62,0,0,1,2.62-2.62h25.92a65,65,0,0,1,7.94-20L350.8,282.57a2.62,2.62,0,0,1,0-3.7l16-16a2.61,2.61,0,0,1,3.7,0L389,281.35a64.89,64.89,0,0,1,22.73-10v-25a2.62,2.62,0,0,1,2.62-2.62H437a2.62,2.62,0,0,1,2.62,2.62v24.79a66,66,0,0,1,23.94,10.19L482,262.86a2.62,2.62,0,0,1,1.85-.77h0a2.62,2.62,0,0,1,1.85.77l16,16a2.61,2.61,0,0,1,0,3.7l-19,19a65.06,65.06,0,0,1,8,20.09h26a2.62,2.62,0,0,1,2.62,2.62v22.64a2.62,2.62,0,0,1-2.62,2.62h-26a65,65,0,0,1-9,21.83l16.21,16.21a2.61,2.61,0,0,1,0,3.7l-16,16a2.61,2.61,0,0,1-3.7,0l-16.24-16.24a64.91,64.91,0,0,1-22.28,9.05v24.43A2.62,2.62,0,0,1,437,427.15Zm-20-5.23h17.41v-24a2.62,2.62,0,0,1,2.17-2.58,59.85,59.85,0,0,0,24.18-9.82,2.62,2.62,0,0,1,3.34.3L480,401.75l12.32-12.32-15.88-15.89a2.62,2.62,0,0,1-.3-3.34A59.94,59.94,0,0,0,486,346.46a2.61,2.61,0,0,1,2.57-2.15h25.58V326.9H488.53a2.61,2.61,0,0,1-2.57-2.15,60,60,0,0,0-8.77-22.12,2.61,2.61,0,0,1,.34-3.27l18.62-18.64L483.84,268.4l-18.16,18.17a2.61,2.61,0,0,1-3.4.25,60.62,60.62,0,0,0-25.72-11,2.61,2.61,0,0,1-2.18-2.58V248.94H417v24.54a2.61,2.61,0,0,1-2.13,2.57,59.82,59.82,0,0,0-24.56,10.81,2.61,2.61,0,0,1-3.4-.25L368.66,268.4l-12.32,12.31L375,299.41a2.62,2.62,0,0,1,.35,3.27,59.92,59.92,0,0,0-8.74,22.08,2.62,2.62,0,0,1-2.57,2.15H338.63v17.41h25.45a2.61,2.61,0,0,1,2.57,2.15,60.38,60.38,0,0,0,6.93,19.14,2.62,2.62,0,0,1-.42,3.14l-20.69,20.69,12.32,12.31,19.26-19.27a2.61,2.61,0,0,1,3.52-.16,60.65,60.65,0,0,0,27.27,12.87,2.62,2.62,0,0,1,2.12,2.57Z"/><path class="cls-5" d="M456.74,335.61a30.44,30.44,0,1,1-30.44-30.44A30.44,30.44,0,0,1,456.74,335.61Z"/><path class="cls-4" d="M426.3,368.67a33.05,33.05,0,1,1,33.05-33.05A33.09,33.09,0,0,1,426.3,368.67Zm0-60.88a27.82,27.82,0,1,0,27.82,27.82A27.86,27.86,0,0,0,426.3,307.79Z"/><path class="cls-3" d="M430.39,229.43,435.72,217l-15.48-6.65a37.57,37.57,0,0,0,.42-14.83l16.07-6.42-5-12.57L416,182.81a37.55,37.55,0,0,0-12-12.61l6.36-14.8-12.43-5.34L391.49,165a37.55,37.55,0,0,0-16.73.15l-6.28-15.74-12.57,5,6.44,16.12A37.48,37.48,0,0,0,351.91,181L336.5,174.4l-5.34,12.43,15.41,6.62a37.67,37.67,0,0,0-.73,12.67l-17.69,7.06,5,12.57,16.57-6.62a37.69,37.69,0,0,0,12.45,14.08l-6.32,14.71,12.43,5.34,6.27-14.6a37.54,37.54,0,0,0,16.27.32l5.56,13.93,12.57-5L403.43,234a37.59,37.59,0,0,0,11.48-11.18Z"/><path class="cls-4" d="M368.31,255.86a2.61,2.61,0,0,1-1-.21l-12.43-5.34a2.62,2.62,0,0,1-1.37-3.43L359,234.1a40.49,40.49,0,0,1-10.4-11.69l-14.42,5.76a2.61,2.61,0,0,1-3.4-1.46l-5-12.57a2.61,2.61,0,0,1,1.46-3.4l15.89-6.35a40.15,40.15,0,0,1,.52-9.39l-13.46-5.78a2.62,2.62,0,0,1-1.37-3.43l5.34-12.43a2.62,2.62,0,0,1,3.44-1.37L351,177.78a39.83,39.83,0,0,1,8.16-8.2l-5.68-14.21a2.61,2.61,0,0,1,1.46-3.4l12.57-5a2.62,2.62,0,0,1,3.4,1.46l5.47,13.71a39.73,39.73,0,0,1,13.54-.11l5.57-13a2.62,2.62,0,0,1,3.44-1.37L411.35,153a2.62,2.62,0,0,1,1.37,3.43l-5.51,12.83a40.51,40.51,0,0,1,9.85,10.31l13.68-5.46a2.61,2.61,0,0,1,3.4,1.46l5,12.57a2.61,2.61,0,0,1-1.46,3.4l-14.16,5.66a39.93,39.93,0,0,1-.32,11.6l13.53,5.81a2.62,2.62,0,0,1,1.37,3.43l-5.34,12.43a2.62,2.62,0,0,1-3.44,1.37L415.83,226a39.86,39.86,0,0,1-9.18,8.95l4.76,11.94a2.62,2.62,0,0,1-1.46,3.4l-12.57,5a2.62,2.62,0,0,1-3.4-1.46l-4.78-12a39.8,39.8,0,0,1-13.07-.26l-5.42,12.63A2.62,2.62,0,0,1,368.31,255.86Zm-9-9.33,7.63,3.27,5.24-12.2a2.62,2.62,0,0,1,3-1.51,34.73,34.73,0,0,0,15.14.3,2.61,2.61,0,0,1,2.95,1.59l4.59,11.5,7.71-3.08L401,234.93a2.61,2.61,0,0,1,1-3.19,34.77,34.77,0,0,0,10.68-10.4,2.61,2.61,0,0,1,3.21-1L429,226l3.27-7.62-13.08-5.61a2.61,2.61,0,0,1-1.52-3,34.8,34.8,0,0,0,.39-13.8,2.62,2.62,0,0,1,1.61-2.87l13.64-5.45-3.08-7.71L417,185.24a2.61,2.61,0,0,1-3.23-1.11,35.16,35.16,0,0,0-11.2-11.73,2.62,2.62,0,0,1-1-3.23l5.32-12.4-7.63-3.27L393.89,166a2.62,2.62,0,0,1-3,1.52,34.74,34.74,0,0,0-15.57.14,2.62,2.62,0,0,1-3-1.58L367,152.78l-7.71,3.08,5.47,13.69a2.61,2.61,0,0,1-1,3.14,34.76,34.76,0,0,0-9.71,9.77,2.62,2.62,0,0,1-3.21,1l-13-5.58-3.27,7.62,13,5.58a2.61,2.61,0,0,1,1.52,3,35,35,0,0,0-.68,11.79,2.61,2.61,0,0,1-1.63,2.72l-15.26,6.09,3.08,7.71,14.14-5.65a2.61,2.61,0,0,1,3.3,1.24A35.19,35.19,0,0,0,363.66,231a2.62,2.62,0,0,1,.94,3.2Z"/><circle class="cls-5" cx="383.41" cy="201.9" r="18.19" transform="translate(46.61 474.55) rotate(-66.76)"/><path class="cls-4" d="M383.4,222.72a20.86,20.86,0,1,1,7.72-1.5A20.75,20.75,0,0,1,383.4,222.72Zm0-36.4A15.58,15.58,0,1,0,397.71,208h0a15.59,15.59,0,0,0-14.31-21.73Z"/><path class="cls-3" d="M521.15,234.68l3.79-8.82-11-4.72a26.64,26.64,0,0,0,.3-10.52l11.4-4.56-3.56-8.92L511,201.61a26.65,26.65,0,0,0-8.54-8.94l4.51-10.5-8.82-3.79L493.56,189a26.65,26.65,0,0,0-11.87.11l-4.46-11.17-8.92,3.56,4.57,11.44a26.58,26.58,0,0,0-7.4,7.45l-10.93-4.69-3.79,8.82,10.93,4.69a26.74,26.74,0,0,0-.52,9l-12.55,5,3.56,8.92,11.76-4.7a26.75,26.75,0,0,0,8.84,10l-4.48,10.44,8.82,3.79,4.45-10.36a26.63,26.63,0,0,0,11.54.23l3.95,9.88,8.92-3.56L502,237.9a26.67,26.67,0,0,0,8.14-7.93Z"/><path class="cls-4" d="M477.12,253.82a2.24,2.24,0,0,1-.88-.18l-8.82-3.79a2.24,2.24,0,0,1-1.17-2.94l3.77-8.79a29.14,29.14,0,0,1-7.07-7.94l-9.93,4a2.24,2.24,0,0,1-2.91-1.25L446.54,224a2.24,2.24,0,0,1,1.25-2.91l11-4.4a28.88,28.88,0,0,1,.34-6.17l-9.27-4a2.24,2.24,0,0,1-1.17-2.94l3.79-8.82a2.24,2.24,0,0,1,2.94-1.18l9.27,4a28.62,28.62,0,0,1,5.45-5.47l-3.92-9.81a2.24,2.24,0,0,1,1.25-2.91l8.92-3.56a2.25,2.25,0,0,1,2.91,1.25l3.77,9.43a28.61,28.61,0,0,1,9.13-.07l3.84-8.93a2.24,2.24,0,0,1,2.94-1.18l8.82,3.79A2.24,2.24,0,0,1,509,183l-3.79,8.82a29.15,29.15,0,0,1,6.66,7l9.41-3.76a2.24,2.24,0,0,1,2.91,1.25l3.56,8.92a2.24,2.24,0,0,1-1.25,2.91l-9.77,3.9a28.6,28.6,0,0,1-.21,7.75l9.32,4a2.24,2.24,0,0,1,1.17,2.94l-3.79,8.82a2.24,2.24,0,0,1-2.94,1.18l-9.32-4a28.65,28.65,0,0,1-6.17,6l3.27,8.19a2.24,2.24,0,0,1-1.25,2.91l-8.92,3.56a2.24,2.24,0,0,1-2.91-1.25l-3.27-8.2a28.6,28.6,0,0,1-8.79-.17l-3.73,8.68a2.24,2.24,0,0,1-2.06,1.36Zm-5.88-7.2,4.7,2,3.56-8.3a2.24,2.24,0,0,1,2.58-1.3,24.25,24.25,0,0,0,10.57.21,2.25,2.25,0,0,1,2.53,1.37l3.11,7.8,4.75-1.9-3.11-7.79a2.24,2.24,0,0,1,.9-2.73,24.3,24.3,0,0,0,7.46-7.27,2.24,2.24,0,0,1,2.75-.82l8.92,3.83,2-4.7-8.92-3.83a2.24,2.24,0,0,1-1.3-2.56A24.26,24.26,0,0,0,512,211a2.24,2.24,0,0,1,1.38-2.46l9.32-3.72-1.9-4.75-9.06,3.62a2.24,2.24,0,0,1-2.77-1,24.57,24.57,0,0,0-7.83-8.19,2.24,2.24,0,0,1-.84-2.77l3.63-8.44-4.7-2-3.66,8.52a2.25,2.25,0,0,1-2.54,1.3,24.24,24.24,0,0,0-10.87.1,2.24,2.24,0,0,1-2.6-1.35L476,180.8l-4.75,1.9,3.74,9.35a2.24,2.24,0,0,1-.83,2.69,24.27,24.27,0,0,0-6.78,6.82,2.24,2.24,0,0,1-2.75.82l-8.87-3.81-2,4.7,8.87,3.81a2.24,2.24,0,0,1,1.3,2.56,24.48,24.48,0,0,0-.48,8.23,2.24,2.24,0,0,1-1.4,2.33l-10.47,4.18,1.9,4.75,9.67-3.86a2.24,2.24,0,0,1,2.83,1.06,24.59,24.59,0,0,0,8.1,9.15,2.24,2.24,0,0,1,.8,2.74Z"/><circle class="cls-5" cx="487.82" cy="215.15" r="12.9" transform="translate(97.66 578.52) rotate(-66.76)"/><path class="cls-4" d="M487.82,230.31a15.15,15.15,0,1,1,13.92-9.18h0a15.19,15.19,0,0,1-13.92,9.18Zm0-25.82a10.66,10.66,0,1,0,9.78,14.87h0a10.66,10.66,0,0,0-9.78-14.87Z"/><polygon class="cls-6" points="366.97 72.27 383.52 77.8 387.53 65.8 383.52 77.8 402.01 83.99 404.01 77.99 402.01 83.99 419.2 89.74 423.21 77.74 419.2 89.74 436.72 95.6 438.72 89.6 436.72 95.6 453.58 101.24 457.6 89.24 453.58 101.24 470.78 107 472.78 101 470.78 107 488.94 113.07 492.95 101.07 488.94 113.07 506.46 118.93 517.85 84.87 378.37 38.21 366.97 72.27"/><path class="cls-4" d="M506.46,121.17a2.24,2.24,0,0,1-.71-.12l-17.51-5.86h0l-18.16-6.08h0l-17.19-5.75h0l-34.38-11.5h0L401.3,86.11h0l-18.48-6.18h0l-16.54-5.53a2.24,2.24,0,0,1-1.42-2.84L376.24,37.5a2.24,2.24,0,0,1,2.84-1.41L518.56,82.75A2.24,2.24,0,0,1,520,85.58l-11.39,34.06a2.24,2.24,0,0,1-2.13,1.53Zm-14.68-9.52L505,116.1l10-29.81L379.78,41l-10,29.81L382.1,75l3.3-9.87a2.24,2.24,0,0,1,4.25,1.42l-3.3,9.87,14.24,4.76,1.29-3.87a2.24,2.24,0,0,1,4.25,1.42l-1.3,3.87,12.94,4.33,3.3-9.87a2.24,2.24,0,0,1,4.25,1.42L422,88.33l13.27,4.44,1.29-3.87a2.24,2.24,0,0,1,4.25,1.42l-1.3,3.87,12.61,4.22,3.3-9.87A2.24,2.24,0,0,1,459.72,90l-3.3,9.87,12.94,4.33,1.29-3.87a2.24,2.24,0,0,1,4.25,1.42l-1.3,3.87,13.91,4.65,3.3-9.87a2.24,2.24,0,0,1,4.25,1.42Z"/><path class="cls-7" d="M114.24,81.65a4.1,4.1,0,0,0-2.3,5.33l3.92,9.86a4.11,4.11,0,0,0,5.33,2.3l7-2.78A4.1,4.1,0,0,0,130.49,91l-3.92-9.86a4.1,4.1,0,0,0-5.33-2.3Z"/><polygon class="cls-6" points="248.32 48.52 241.36 31.04 122.19 78.48 122.24 78.62 129.09 95.83 129.15 95.97 248.32 48.52"/><path class="cls-4" d="M129.15,98.21a2.24,2.24,0,0,1-2.08-1.41l-6.91-17.35a2.37,2.37,0,0,1,1.2-3L240.53,29a2.24,2.24,0,0,1,2.91,1.25l7,17.48a2.24,2.24,0,0,1-1.25,2.91L130,98A2.22,2.22,0,0,1,129.15,98.21Zm-4-18.47,5.3,13.32,115-45.79L240.11,34Z"/><path class="cls-8" d="M121.24,78.86l-7,2.78a4.1,4.1,0,0,0-2.3,5.33l3.92,9.86a4.11,4.11,0,0,0,5.33,2.3l7-2.78a4.07,4.07,0,0,0,.9-.51l-6.85-17.21A4,4,0,0,0,121.24,78.86Z"/><path class="cls-4" d="M119.69,101.66a6.36,6.36,0,0,1-5.91-4l-3.92-9.86a6.35,6.35,0,0,1,3.55-8.24l7-2.78a6.23,6.23,0,0,1,1.56-.39,2.25,2.25,0,0,1,2.36,1.4L131.17,95a2.24,2.24,0,0,1-.76,2.64,6.3,6.3,0,0,1-1.39.79l-7,2.78A6.31,6.31,0,0,1,119.69,101.66Zm1.24-20.26-5.86,2.33a1.86,1.86,0,0,0-1,2.42L118,96a1.87,1.87,0,0,0,2.42,1l5.86-2.33Zm.3-2.53h0Z"/><rect class="cls-8" x="244.47" y="28.41" width="10.6" height="18.82" transform="translate(3.73 95.07) rotate(-21.71)"/><path class="cls-4" d="M248.32,50.76a2.24,2.24,0,0,1-2.08-1.41l-7-17.48A2.24,2.24,0,0,1,240.53,29L250.38,25a2.24,2.24,0,0,1,2.91,1.25l7,17.48A2.24,2.24,0,0,1,259,46.68l-9.85,3.92A2.24,2.24,0,0,1,248.32,50.76Zm-4-18.47,5.3,13.32,5.68-2.26L250,30Z"/><polygon class="cls-9" points="273.13 28.52 273.13 28.52 251.21 27.12 258.17 44.6 273.13 28.52"/><path class="cls-4" d="M258.17,46.84a2.24,2.24,0,0,1-2.08-1.41l-7-17.48a2.24,2.24,0,0,1,2.23-3.07l21.91,1.4a2.24,2.24,0,0,1,1.5,3.76l-15,16.08A2.24,2.24,0,0,1,258.17,46.84Zm-3.57-17.26,4.34,10.9,9.32-10Z"/><line class="cls-10" x1="236.9" y1="42.94" x2="225.29" y2="47.56"/><path class="cls-11" d="M225.29,49.8a2.24,2.24,0,0,1-.83-4.32l11.6-4.62A2.24,2.24,0,0,1,237.73,45l-11.6,4.62A2.22,2.22,0,0,1,225.29,49.8Z"/><line class="cls-10" x1="165.71" y1="71.28" x2="125.67" y2="87.22"/><path class="cls-4" d="M125.67,89.47a2.24,2.24,0,0,1-.83-4.32l40-15.94a2.24,2.24,0,0,1,1.66,4.16l-40,15.94A2.22,2.22,0,0,1,125.67,89.47Z"/><path class="cls-6" d="M86.18,401.91v-9.66c0-6.26,8.27-11.33,18.47-11.33H296.2V370.74H94.39a18.47,18.47,0,0,0-18.47,18.47v15.74a18.47,18.47,0,0,0,18.47,18.47H296.2V413.24H104.65C94.45,413.24,86.18,408.17,86.18,401.91Z"/><path class="cls-4" d="M296.2,425.66H94.39a20.74,20.74,0,0,1-20.71-20.71V389.21A20.74,20.74,0,0,1,94.39,368.5H296.2a2.24,2.24,0,0,1,2.24,2.24v10.18a2.24,2.24,0,0,1-2.24,2.24H104.65c-8.8,0-16.23,4.16-16.23,9.09v9.66c0,4.93,7.43,9.09,16.23,9.09H296.2a2.24,2.24,0,0,1,2.24,2.24v10.18A2.24,2.24,0,0,1,296.2,425.66ZM94.39,373a16.25,16.25,0,0,0-16.23,16.23v15.73a16.25,16.25,0,0,0,16.23,16.23H294v-5.69H104.65c-11.62,0-20.71-6-20.71-13.58v-9.66c0-7.61,9.1-13.58,20.71-13.58H294V373Z"/><path class="cls-12" d="M104.65,380.92c-10.2,0-18.47,5.07-18.47,11.33v9.66c0,6.26,8.27,11.33,18.47,11.33H296.2V380.92Z"/><path class="cls-4" d="M296.2,415.48H104.65c-11.62,0-20.71-6-20.71-13.58v-9.66c0-7.61,9.1-13.58,20.71-13.58H296.2a2.24,2.24,0,0,1,2.24,2.24v32.32A2.24,2.24,0,0,1,296.2,415.48ZM104.65,383.16c-8.8,0-16.23,4.16-16.23,9.09v9.66c0,4.93,7.43,9.09,16.23,9.09H294V383.16Z"/><path class="cls-4" d="M286.8,391.63H109.53a2.24,2.24,0,0,1,0-4.48H286.8a2.24,2.24,0,0,1,0,4.48Z"/><path class="cls-4" d="M286.8,398.55H109.53a2.24,2.24,0,0,1,0-4.48H286.8a2.24,2.24,0,0,1,0,4.48Z"/><path class="cls-4" d="M286.8,407H109.53a2.24,2.24,0,0,1,0-4.48H286.8a2.24,2.24,0,0,1,0,4.48Z"/><path class="cls-8" d="M35.55,349.23v-9.66c0-6.26,8.27-11.33,18.47-11.33H245.57V318.07H43.76a18.47,18.47,0,0,0-18.47,18.47v15.73a18.47,18.47,0,0,0,18.47,18.47H245.57V360.57H54C43.82,360.57,35.55,355.49,35.55,349.23Z"/><path class="cls-4" d="M245.57,373H43.76a20.74,20.74,0,0,1-20.71-20.71V336.54a20.74,20.74,0,0,1,20.71-20.71H245.57a2.24,2.24,0,0,1,2.24,2.24v10.18a2.24,2.24,0,0,1-2.24,2.24H54c-8.8,0-16.23,4.16-16.23,9.09v9.66c0,4.93,7.43,9.09,16.23,9.09H245.57a2.24,2.24,0,0,1,2.24,2.24v10.18A2.24,2.24,0,0,1,245.57,373ZM43.76,320.31a16.25,16.25,0,0,0-16.23,16.23v15.74A16.25,16.25,0,0,0,43.76,368.5H243.33v-5.69H54c-11.62,0-20.71-6-20.71-13.58v-9.66C33.31,332,42.41,326,54,326H243.33v-5.69Z"/><path class="cls-12" d="M54,328.24c-10.2,0-18.47,5.07-18.47,11.33v9.66c0,6.26,8.27,11.33,18.47,11.33H245.57V328.24Z"/><path class="cls-4" d="M245.57,362.81H54c-11.62,0-20.71-6-20.71-13.58v-9.66C33.31,332,42.41,326,54,326H245.57a2.24,2.24,0,0,1,2.24,2.24v32.32A2.24,2.24,0,0,1,245.57,362.81ZM54,330.48c-8.8,0-16.23,4.16-16.23,9.09v9.66c0,4.93,7.43,9.09,16.23,9.09H243.33V330.48Z"/><path class="cls-4" d="M236.17,338.95H58.9a2.24,2.24,0,0,1,0-4.48H236.17a2.24,2.24,0,0,1,0,4.48Z"/><path class="cls-4" d="M236.17,345.88H58.9a2.24,2.24,0,1,1,0-4.48H236.17a2.24,2.24,0,1,1,0,4.48Z"/><path class="cls-4" d="M236.17,354.34H58.9a2.24,2.24,0,0,1,0-4.48H236.17a2.24,2.24,0,1,1,0,4.48Z"/><path class="cls-6" d="M69.16,296.55V286.9c0-6.26,8.27-11.33,18.47-11.33H279.18V265.39H77.37A18.47,18.47,0,0,0,58.9,283.86v15.73a18.47,18.47,0,0,0,18.47,18.47H279.18V307.89H87.63C77.43,307.89,69.16,302.81,69.16,296.55Z"/><path class="cls-4" d="M279.18,320.31H77.37a20.74,20.74,0,0,1-20.71-20.71V283.86a20.73,20.73,0,0,1,20.71-20.71H279.18a2.24,2.24,0,0,1,2.24,2.24v10.17a2.24,2.24,0,0,1-2.24,2.24H87.63c-8.8,0-16.23,4.16-16.23,9.09v9.66c0,4.93,7.43,9.09,16.23,9.09H279.18a2.24,2.24,0,0,1,2.24,2.24v10.18A2.24,2.24,0,0,1,279.18,320.31ZM77.37,267.63a16.25,16.25,0,0,0-16.23,16.23v15.73a16.25,16.25,0,0,0,16.23,16.23H276.94v-5.69H87.63c-11.61,0-20.71-6-20.71-13.58V286.9c0-7.61,9.1-13.58,20.71-13.58H276.94v-5.69Z"/><path class="cls-12" d="M87.63,275.56c-10.2,0-18.47,5.07-18.47,11.33v9.66c0,6.26,8.27,11.33,18.47,11.33H279.18V275.56Z"/><path class="cls-4" d="M279.18,310.13H87.63c-11.61,0-20.71-6-20.71-13.58V286.9c0-7.61,9.1-13.58,20.71-13.58H279.18a2.24,2.24,0,0,1,2.24,2.24v32.33A2.24,2.24,0,0,1,279.18,310.13ZM87.63,277.81c-8.8,0-16.23,4.16-16.23,9.09v9.66c0,4.93,7.43,9.09,16.23,9.09H276.94V277.81Z"/><path class="cls-4" d="M269.78,286.27H92.51a2.24,2.24,0,0,1,0-4.48H269.78a2.24,2.24,0,0,1,0,4.48Z"/><path class="cls-4" d="M269.78,293.2H92.51a2.24,2.24,0,0,1,0-4.48H269.78a2.24,2.24,0,0,1,0,4.48Z"/><path class="cls-4" d="M269.78,301.66H92.51a2.24,2.24,0,0,1,0-4.48H269.78a2.24,2.24,0,0,1,0,4.48Z"/><polygon class="cls-3" points="148.3 366.33 247.25 342.54 241.81 319.9 142.8 343.71 148.3 366.33"/><path class="cls-4" d="M148.3,368.95a2.62,2.62,0,0,1-2.54-2l-5.5-22.62a2.62,2.62,0,0,1,1.93-3.16l99-23.81a2.61,2.61,0,0,1,3.15,1.93l5.44,22.64a2.62,2.62,0,0,1-1.93,3.15l-99,23.79A2.65,2.65,0,0,1,148.3,368.95ZM146,345.64l4.27,17.54,93.87-22.57-4.22-17.55Z"/><polygon class="cls-13" points="142.8 343.71 241.81 319.9 236.37 297.27 137.29 321.09 142.8 343.71"/><path class="cls-4" d="M142.79,346.33a2.62,2.62,0,0,1-2.54-2l-5.5-22.62a2.62,2.62,0,0,1,1.93-3.16l99.07-23.82a2.62,2.62,0,0,1,3.15,1.93l5.44,22.64a2.61,2.61,0,0,1-1.93,3.15l-99,23.81A2.66,2.66,0,0,1,142.79,346.33ZM140.45,323l4.27,17.54L238.65,318l-4.22-17.55Z"/><path class="cls-5" d="M145.35,136.68a96,96,0,0,0-8.06,184.41l99.07-23.82a96,96,0,0,0-91-160.59Z"/><path class="cls-4" d="M137.29,323.7a2.6,2.6,0,0,1-.83-.14A98.64,98.64,0,1,1,238.23,299.1a2.63,2.63,0,0,1-1.26.71L137.9,323.63A2.63,2.63,0,0,1,137.29,323.7ZM168,136.6a94.09,94.09,0,0,0-22,2.62,93.41,93.41,0,0,0-8.55,179.15L235,294.9A93.45,93.45,0,0,0,168,136.6Zm68.39,160.67h0Z"/><polygon class="cls-14" points="154.93 393.9 176.78 388.65 231.9 375.4 253.88 370.11 247.25 342.54 148.3 366.33 154.93 393.9"/><path class="cls-4" d="M154.93,396.52a2.62,2.62,0,0,1-2.54-2l-6.63-27.57a2.61,2.61,0,0,1,1.93-3.15l99-23.79a2.61,2.61,0,0,1,3.15,1.93l6.63,27.57a2.61,2.61,0,0,1-1.93,3.15l-99,23.79A2.63,2.63,0,0,1,154.93,396.52Zm-3.47-28.25,5.41,22.48,93.87-22.57-5.41-22.48Z"/><path class="cls-9" d="M177.84,393A28.34,28.34,0,1,0,233,379.79l-1.06-4.39-55.12,13.25Z"/><path class="cls-4" d="M205.34,417.39a31,31,0,0,1-30-23.73l-1.06-4.39a2.62,2.62,0,0,1,1.93-3.15l55.12-13.25a2.61,2.61,0,0,1,3.15,1.93l1.06,4.39a31,31,0,0,1-22.86,37.34A31.22,31.22,0,0,1,205.34,417.39Zm-25.4-26.81.44,1.85h0a25.73,25.73,0,1,0,50-12l-.45-1.85Z"/><path class="cls-4" d="M186.53,311.87a2.61,2.61,0,0,1-2.54-2L167.9,243l-41.51-25.42a2.62,2.62,0,0,1,2.73-4.46l42.44,26a2.61,2.61,0,0,1,1.18,1.62l16.34,67.95a2.61,2.61,0,0,1-1.93,3.15A2.65,2.65,0,0,1,186.53,311.87Z"/><path class="cls-4" d="M170.19,243.92a2.62,2.62,0,0,1-2.23-4l26.53-43.32a2.62,2.62,0,0,1,4.46,2.73l-26.53,43.32A2.61,2.61,0,0,1,170.19,243.92Z"/><path class="cls-15" d="M194.87,178.37a2.62,2.62,0,0,1-.61-5.16l90.6-21.78a2.62,2.62,0,0,1,1.22,5.09l-90.6,21.78A2.65,2.65,0,0,1,194.87,178.37Z"/><path class="cls-15" d="M128.09,171a2.62,2.62,0,0,1-.61-5.16l17.74-4.26a2.62,2.62,0,0,1,1.22,5.09l-17.74,4.26A2.65,2.65,0,0,1,128.09,171Z"/><path class="cls-15" d="M53.51,295.59a2.62,2.62,0,0,1-.61-5.16l78.56-18.89a2.62,2.62,0,0,1,1.22,5.09L54.12,295.52A2.65,2.65,0,0,1,53.51,295.59Z"/><path class="cls-15" d="M204.25,253.57a2.62,2.62,0,0,1-.61-5.16l12.67-3a2.62,2.62,0,0,1,1.22,5.09l-12.67,3A2.65,2.65,0,0,1,204.25,253.57Z"/><path class="cls-15" d="M96.85,238.93a2.62,2.62,0,0,1-.61-5.16l19-4.58a2.62,2.62,0,0,1,1.22,5.09l-19,4.58A2.65,2.65,0,0,1,96.85,238.93Z"/><line class="cls-13" x1="164.09" y1="291.18" x2="198.66" y2="282.87"/><path class="cls-4" d="M164.09,293.8a2.62,2.62,0,0,1-.61-5.16L198,280.33a2.62,2.62,0,0,1,1.22,5.09l-34.57,8.31A2.65,2.65,0,0,1,164.09,293.8Z"/><path class="cls-15" d="M220.5,212.47a2.62,2.62,0,0,1-.61-5.16l12-2.89a2.62,2.62,0,0,1,1.22,5.09l-12,2.89A2.65,2.65,0,0,1,220.5,212.47Z"/><path class="cls-16" d="M310.91,118.61a72.8,72.8,0,0,0-72.8,72.8v15.89c26.21-2.23,62.18-12,88.68-45.22,0,0,20.69,39.21,56.93,54.56V191.41A72.8,72.8,0,0,0,310.91,118.61Z"/><path class="cls-4" d="M383.72,218.89a2.24,2.24,0,0,1-.87-.18c-31.19-13.21-50.78-43.15-56.4-52.67-26.92,32-62.62,41.33-88.14,43.5a2.27,2.27,0,0,1-1.71-.58,2.24,2.24,0,0,1-.73-1.65V191.41a75,75,0,0,1,150.09,0v25.23a2.24,2.24,0,0,1-2.24,2.24Zm-56.93-59H327a2.24,2.24,0,0,1,1.77,1.19c.2.37,19.55,36.43,52.71,52.14V191.41a70.56,70.56,0,0,0-141.12,0v13.43c25.13-2.55,59.37-12.42,84.68-44.15A2.24,2.24,0,0,1,326.79,159.85Z"/><path class="cls-8" d="M368.68,374.91V363.12a49.2,49.2,0,0,0-43.29-48.83V321a14.44,14.44,0,0,1-28.88,0v-6.71a49.2,49.2,0,0,0-43.35,48.84v68.36a49.9,49.9,0,0,0,.4,6H368.27a49,49,0,0,0,.4-6Z"/><path class="cls-4" d="M368.27,439.7H253.55a2.24,2.24,0,0,1-2.23-2,51.79,51.79,0,0,1-.42-6.25V363.12a51.44,51.44,0,0,1,45.33-51.06,2.24,2.24,0,0,1,2.51,2.23V321a12.2,12.2,0,0,0,24.4,0v-6.7a2.24,2.24,0,0,1,2.51-2.23,51.45,51.45,0,0,1,45.26,51.05v68.36a50.77,50.77,0,0,1-.42,6.25A2.24,2.24,0,0,1,368.27,439.7Zm-112.7-4.48H366.26c.12-1.34.18-2.56.18-3.74V363.12a47,47,0,0,0-38.81-46.23V321a16.68,16.68,0,0,1-33.37,0v-4.12a47,47,0,0,0-38.87,46.25v68.36C255.39,432.64,255.45,433.86,255.57,435.22Z"/><path class="cls-17" d="M368.68,431.48a49,49,0,0,1-.4,6h29a49,49,0,0,0,.4-6V374.91H368.68Z"/><path class="cls-4" d="M397.22,439.7h-29a2.24,2.24,0,0,1-2.23-2.51,46,46,0,0,0,.39-5.71V374.91a2.24,2.24,0,0,1,2.24-2.24h28.95a2.24,2.24,0,0,1,2.24,2.24v56.57a51.21,51.21,0,0,1-.42,6.25A2.24,2.24,0,0,1,397.22,439.7Zm-26.47-4.48h24.45c.12-1.33.18-2.56.18-3.74V377.15H370.92v54.33C370.92,432.68,370.87,433.9,370.76,435.22Z"/><path class="cls-18" d="M348.41,313.9H331.31a49.49,49.49,0,0,0-5.93.39,49.2,49.2,0,0,1,43.29,48.83v11.79h28.95V363.12A49.22,49.22,0,0,0,348.41,313.9Z"/><path class="cls-4" d="M397.62,377.15H368.68a2.24,2.24,0,0,1-2.24-2.24V363.12a47,47,0,0,0-41.32-46.6,2.24,2.24,0,0,1,0-4.45,51.66,51.66,0,0,1,6.19-.41h17.09a51.52,51.52,0,0,1,51.46,51.46v11.79A2.24,2.24,0,0,1,397.62,377.15Zm-26.71-4.48h24.46v-9.55a47,47,0,0,0-47-47h-8a51.48,51.48,0,0,1,30.49,47Z"/><path class="cls-18" d="M253.15,363.12a49.2,49.2,0,0,1,43.35-48.84,49.63,49.63,0,0,0-5.86-.38H273.55a49.22,49.22,0,0,0-49.22,49.22v11.79h28.82Z"/><path class="cls-4" d="M253.15,377.15H224.33a2.24,2.24,0,0,1-2.24-2.24V363.12a51.52,51.52,0,0,1,51.46-51.46h17.09a51.85,51.85,0,0,1,6.13.4,2.24,2.24,0,0,1,0,4.45,47,47,0,0,0-41.38,46.61v11.79A2.24,2.24,0,0,1,253.15,377.15Zm-26.57-4.48h24.33v-9.55a51.46,51.46,0,0,1,30.48-47h-7.83a47,47,0,0,0-47,47Z"/><path class="cls-17" d="M253.15,374.91H224.33v56.57a49.9,49.9,0,0,0,.4,6h28.82a49.9,49.9,0,0,1-.4-6Z"/><path class="cls-4" d="M253.55,439.7H224.73a2.24,2.24,0,0,1-2.23-2,51.49,51.49,0,0,1-.41-6.25V374.91a2.24,2.24,0,0,1,2.24-2.24h28.82a2.24,2.24,0,0,1,2.24,2.24v56.57a47.45,47.45,0,0,0,.39,5.71,2.24,2.24,0,0,1-2.23,2.51Zm-26.8-4.48h24.32c-.11-1.34-.16-2.56-.16-3.74V377.15H226.58v54.33C226.58,432.66,226.63,433.88,226.75,435.22Z"/><path class="cls-19" d="M326.79,162.09c-26.49,33.21-62.46,43-88.68,45.22v23.75a72.8,72.8,0,0,0,145.6,0V216.64C347.48,201.3,326.79,162.09,326.79,162.09Z"/><path class="cls-4" d="M310.91,306.1a75.11,75.11,0,0,1-75-75V207.31a2.24,2.24,0,0,1,2.05-2.23c25.31-2.16,61-11.61,87.11-44.38a2.24,2.24,0,0,1,3.73.35c.2.39,20.76,38.7,55.82,53.54a2.24,2.24,0,0,1,1.37,2.06v14.42a75.1,75.1,0,0,1-75,75Zm-70.56-96.75v21.71a70.56,70.56,0,0,0,141.12,0V218.12c-30.4-13.49-49.5-42.7-55-52.07C300.24,197.15,265.71,206.85,240.35,209.35Z"/><path class="cls-19" d="M296.79,302.47a14.31,14.31,0,0,0-.28,2.8V321a14.44,14.44,0,0,0,28.88,0V305.27a14.52,14.52,0,0,0-.28-2.81,72.24,72.24,0,0,1-28.31,0Z"/><path class="cls-4" d="M310.95,337.67A16.7,16.7,0,0,1,294.26,321V305.27a16.64,16.64,0,0,1,.33-3.24,2.23,2.23,0,0,1,2.63-1.76,70.3,70.3,0,0,0,27.44,0A2.24,2.24,0,0,1,327.3,302a16.85,16.85,0,0,1,.33,3.25V321A16.7,16.7,0,0,1,310.95,337.67Zm-12.2-32.58c0,.06,0,.11,0,.17V321a12.2,12.2,0,0,0,24.4,0V305.27c0-.06,0-.12,0-.18A74.43,74.43,0,0,1,298.75,305.1Z"/><path class="cls-20" d="M296.5,314.28"/><path class="cls-20" d="M325.39,314.29"/><path class="cls-4" d="M316.72,250.05H305.1a2.24,2.24,0,0,1-2.17-2.79l5.82-23a2.24,2.24,0,1,1,4.35,1.1L308,245.57h8.75a2.24,2.24,0,0,1,0,4.48Z"/><path class="cls-4" d="M316.72,281.5H305.1a2.24,2.24,0,1,1,0-4.48h11.62a2.24,2.24,0,0,1,0,4.48Z"/><path class="cls-21" d="M285.62,259.06H268.53a2.24,2.24,0,0,1,0-4.48h17.09a2.24,2.24,0,0,1,0,4.48Z"/><path class="cls-21" d="M350.22,259.06H333.13a2.24,2.24,0,0,1,0-4.48h17.09a2.24,2.24,0,0,1,0,4.48Z"/><g class="cls-22"><path class="cls-2" d="M33.63,168.2c-12.22,4.44-13.79,6.63-14,19.63C15.2,175.61,13,174,0,173.84c12.22-4.44,13.79-6.63,14-19.63C18.43,166.43,20.63,168,33.63,168.2Z"/><path class="cls-2" d="M33.63,168.2c-12.22,4.44-13.79,6.63-14,19.63C15.2,175.61,13,174,0,173.84c12.22-4.44,13.79-6.63,14-19.63C18.43,166.43,20.63,168,33.63,168.2Z"/><path class="cls-2" d="M334,31.58c-11.79,5.49-13.15,7.81-12.22,20.78-5.49-11.79-7.82-13.15-20.78-12.22,11.79-5.49,13.16-7.81,12.22-20.78C318.67,31.14,321,32.51,334,31.58Z"/><path class="cls-2" d="M334,31.58c-11.79,5.49-13.15,7.81-12.22,20.78-5.49-11.79-7.82-13.15-20.78-12.22,11.79-5.49,13.16-7.81,12.22-20.78C318.67,31.14,321,32.51,334,31.58Z"/><path class="cls-2" d="M33,232.83c7.15-5,7.78-6.72,5.63-15.18,5,7.15,6.72,7.78,15.18,5.63-7.15,5-7.78,6.72-5.64,15.18C43.21,231.32,41.51,230.69,33,232.83Z"/><path class="cls-2" d="M33,232.83c7.15-5,7.78-6.72,5.63-15.18,5,7.15,6.72,7.78,15.18,5.63-7.15,5-7.78,6.72-5.64,15.18C43.21,231.32,41.51,230.69,33,232.83Z"/><path class="cls-2" d="M61.34,123.38c7.15-5,7.78-6.72,5.63-15.18,5,7.15,6.72,7.78,15.18,5.63-7.15,5-7.78,6.72-5.63,15.18C71.51,121.87,69.81,121.24,61.34,123.38Z"/><path class="cls-2" d="M61.34,123.38c7.15-5,7.78-6.72,5.63-15.18,5,7.15,6.72,7.78,15.18,5.63-7.15,5-7.78,6.72-5.63,15.18C71.51,121.87,69.81,121.24,61.34,123.38Z"/><path class="cls-2" d="M180.7,16.12c5.63-6.67,5.81-8.48,1.58-16.12,6.68,5.63,8.48,5.81,16.12,1.58-5.63,6.67-5.81,8.48-1.58,16.12C190.15,12.06,188.34,11.89,180.7,16.12Z"/><path class="cls-2" d="M180.7,16.12c5.63-6.67,5.81-8.48,1.58-16.12,6.68,5.63,8.48,5.81,16.12,1.58-5.63,6.67-5.81,8.48-1.58,16.12C190.15,12.06,188.34,11.89,180.7,16.12Z"/><path class="cls-2" d="M331.26,104.19c7.15-5,7.78-6.72,5.63-15.18,5,7.15,6.72,7.78,15.19,5.63-7.15,5-7.78,6.72-5.64,15.18C341.43,102.68,339.73,102,331.26,104.19Z"/><path class="cls-2" d="M331.26,104.19c7.15-5,7.78-6.72,5.63-15.18,5,7.15,6.72,7.78,15.19,5.63-7.15,5-7.78,6.72-5.64,15.18C341.43,102.68,339.73,102,331.26,104.19Z"/><path class="cls-2" d="M522.33,57.68c7.15-5,7.78-6.72,5.63-15.18,5,7.15,6.72,7.78,15.19,5.63-7.15,5-7.78,6.72-5.64,15.18C532.5,56.17,530.8,55.54,522.33,57.68Z"/><path class="cls-2" d="M522.33,57.68c7.15-5,7.78-6.72,5.63-15.18,5,7.15,6.72,7.78,15.19,5.63-7.15,5-7.78,6.72-5.64,15.18C532.5,56.17,530.8,55.54,522.33,57.68Z"/><path class="cls-2" d="M566.84,237.75c7.15-5,7.78-6.72,5.63-15.18,5,7.15,6.72,7.78,15.19,5.63-7.15,5-7.78,6.72-5.64,15.18C577,236.24,575.3,235.61,566.84,237.75Z"/><path class="cls-2" d="M566.84,237.75c7.15-5,7.78-6.72,5.63-15.18,5,7.15,6.72,7.78,15.19,5.63-7.15,5-7.78,6.72-5.64,15.18C577,236.24,575.3,235.61,566.84,237.75Z"/><path class="cls-2" d="M480.21,27.23C467.93,23,465.32,23.68,457,33.63c4.27-12.28,3.55-14.88-6.41-23.24,12.28,4.27,14.88,3.55,23.25-6.4C469.53,16.27,470.25,18.87,480.21,27.23Z"/><path class="cls-2" d="M480.21,27.23C467.93,23,465.32,23.68,457,33.63c4.27-12.28,3.55-14.88-6.41-23.24,12.28,4.27,14.88,3.55,23.25-6.4C469.53,16.27,470.25,18.87,480.21,27.23Z"/><path class="cls-2" d="M104.27,62.82c-11.77-5.52-14.43-5.08-23.78,4C86,55,85.57,52.34,76.53,43,88.3,48.51,91,48.07,100.32,39,94.8,50.81,95.24,53.47,104.27,62.82Z"/><path class="cls-2" d="M104.27,62.82c-11.77-5.52-14.43-5.08-23.78,4C86,55,85.57,52.34,76.53,43,88.3,48.51,91,48.07,100.32,39,94.8,50.81,95.24,53.47,104.27,62.82Z"/><path class="cls-2" d="M549.55,156.81c-13,.19-15.2,1.76-19.65,14-.19-13-1.76-15.2-14-19.65,13-.19,15.2-1.76,19.65-14C535.77,150.16,537.34,152.36,549.55,156.81Z"/><path class="cls-2" d="M549.55,156.81c-13,.19-15.2,1.76-19.65,14-.19-13-1.76-15.2-14-19.65,13-.19,15.2-1.76,19.65-14C535.77,150.16,537.34,152.36,549.55,156.81Z"/><path class="cls-2" d="M566.53,292.23c-12.11,4.72-13.63,7-13.53,20-4.72-12.11-7-13.63-20-13.53,12.11-4.72,13.63-7,13.53-20C551.3,290.81,553.53,292.32,566.53,292.23Z"/><path class="cls-2" d="M566.53,292.23c-12.11,4.72-13.63,7-13.53,20-4.72-12.11-7-13.63-20-13.53,12.11-4.72,13.63-7,13.53-20C551.3,290.81,553.53,292.32,566.53,292.23Z"/></g><circle class="cls-11" cx="272.02" cy="217.65" r="8.28"/><circle class="cls-11" cx="350.09" cy="216.61" r="8.28"/><polygon class="cls-23" points="311.09 59.41 185.3 96.92 238.69 112.84 311.09 134.42 385.97 112.15 437.2 96.92 311.09 59.41"/><path class="cls-4" d="M311.09,136.18a4.74,4.74,0,0,1-1.34-.19L184,98.49c-1-.3-1.64-.91-1.64-1.57s.63-1.27,1.64-1.57l125.79-37.5a4.9,4.9,0,0,1,2.68,0l126.12,37.5c1,.3,1.64.91,1.64,1.57s-.63,1.27-1.64,1.57L312.43,136A4.76,4.76,0,0,1,311.09,136.18ZM191.91,96.92l119.18,35.54L430.58,96.92,311.09,61.38Z"/><path class="cls-9" d="M238.69,112.84v63c0,2.67,3.67,4.83,8.18,4.83H377.79c4.52,0,8.18-2.16,8.18-4.83V112.15l-74.89,22.27Z"/><path class="cls-4" d="M377.79,182.4H246.88c-6.16,0-11.16-3-11.16-6.59v-63c0-.61.54-1.18,1.42-1.5a4.84,4.84,0,0,1,2.9-.07l71.05,21.18,73.55-21.87a4.83,4.83,0,0,1,2.9.07c.88.32,1.42.89,1.42,1.5v63.67C389,179.45,383.95,182.4,377.79,182.4ZM241.67,115.69v60.12c0,1.69,2.34,3.07,5.21,3.07H377.79c2.87,0,5.21-1.38,5.21-3.07V115l-70.57,21a4.87,4.87,0,0,1-2.68,0Z"/><path class="cls-24" d="M446.52,147.63c0,3-4.17,5.5-9.32,5.5h0c-5.15,0-9.32-2.46-9.32-5.5V131c0-3,4.17-5.5,9.32-5.5h0c5.15,0,9.32,2.46,9.32,5.5Z"/><path class="cls-4" d="M437.2,154.89c-6.78,0-12.3-3.26-12.3-7.26V131c0-4,5.52-7.26,12.3-7.26S449.5,127,449.5,131v16.64C449.5,151.64,444,154.89,437.2,154.89Zm0-27.64c-3.49,0-6.34,1.68-6.34,3.74v16.64c0,2.06,2.84,3.74,6.34,3.74s6.34-1.68,6.34-3.74V131C443.54,128.93,440.69,127.25,437.2,127.25Z"/><line class="cls-25" x1="437.2" y1="125.49" x2="437.2" y2="96.92"/><path class="cls-4" d="M437.2,127.25c-1.64,0-3-.79-3-1.76V96.92c0-1,1.33-1.76,3-1.76s3,.79,3,1.76v28.58C440.18,126.47,438.84,127.25,437.2,127.25Z"/><path class="cls-26" d="M212.78,99.75a3.63,3.63,0,0,1-2.64-.94c-.76-.86-.2-1.92,1.26-2.37L309.87,66a4.18,4.18,0,0,1,4,.74c.76.86.2,1.92-1.26,2.37L214.16,99.55A4.69,4.69,0,0,1,212.78,99.75Z"/><path class="cls-26" d="M311.25,128.4a4.73,4.73,0,0,1-1.31-.18l-17.33-5c-1.48-.43-2.09-1.48-1.36-2.35a4.1,4.1,0,0,1,4-.8l16,4.63L412.62,95.34a4.12,4.12,0,0,1,4,.8c.73.87.11,1.93-1.36,2.35L312.56,128.22A4.73,4.73,0,0,1,311.25,128.4Z"/><path class="cls-27" d="M251,151.88c-1.65,0-3-.79-3-1.76V125.49c0-1,1.33-1.76,3-1.76s3,.79,3,1.76v24.62C253.95,151.09,252.61,151.88,251,151.88Z"/><path class="cls-27" d="M251,166.22c-1.65,0-3-.79-3-1.76V158c0-1,1.33-1.76,3-1.76s3,.79,3,1.76v6.43C253.95,165.43,252.61,166.22,251,166.22Z"/></g></g></svg>