<?xml version="1.0" encoding="utf-8"?>
<!-- Generator: Adobe Illustrator 21.1.0, SVG Export Plug-In . SVG Version: 6.00 Build 0)  -->
<svg version="1.1" id="Layer_1" xmlns="http://www.w3.org/2000/svg" xmlns:xlink="http://www.w3.org/1999/xlink" x="0px" y="0px"
	 viewBox="0 0 690 716.9" style="enable-background:new 0 0 690 716.9;" xml:space="preserve">
<style type="text/css">
	.st0{fill:#FFEBB7;}
	.st1{fill:#E6BE94;}
	.st2{fill:#E3001E;}
	.st3{fill:#FF4F19;}
	.st4{fill:#C9F2FF;}
	.st5{fill:#0C0C0C;}
	.st6{fill:#2D2D2D;}
	.st7{fill:#FFEA80;}
	.st8{fill:#5B86E5;}
	.st9{fill:#C0BAB3;}
	.st10{fill:#52858B;}
	.st11{fill:#C95E15;}
	.st12{fill:#ECECEC;}
	.st13{fill:#F0D61D;}
	.st14{fill:#FFEB80;}
	.st15{fill:#71A3AC;}
	.st16{fill:#FFFFFF;}
	.st17{fill:#464B4C;}
	.st18{fill:#EABE96;}
	.st19{fill:#FFDCB8;}
	.st20{fill:#382B19;}
	.st21{fill:#232728;}
	.st22{fill:#676B6B;}
	.st23{fill:#E5E5E5;}
	.st24{fill:#141414;}
	.st25{fill:#A0A3A3;}
	.st26{fill:#725C2B;}
	.st27{fill:#CB8F5E;}
	.st28{fill:#190F08;}
	.st29{fill:#753427;}
	.st30{fill:#DA9089;}
	.st31{fill:#75A4AC;}
	.st32{fill:#A0CCD0;}
	.st33{fill:#493918;}
	.st34{fill:#FFEDB5;}
	.st35{fill:#FEE187;}
	.st36{fill:#EAA22F;}
	.st37{fill:#FFC61B;}
	.st38{fill:#3A3737;}
	.st39{fill:#D0D1D3;}
	.st40{fill:#E09112;}
	.st41{fill:#424242;}
</style>
<title>winner</title>
<g id="Objects">
	<path class="st0" d="M390.9,364.2c-0.7-1.8-2.5-2.9-4.5-2.8c-86,5.8-172.4,5.8-258.4,0c-2-0.1-3.9,1.1-4.6,3.1
		c-3,9.1-4.6,18.6-4.7,28.1c0,2.5,2,4.5,4.4,4.5c0,0,0,0,0,0h268c2.5,0,4.5-2,4.5-4.4c0,0,0,0,0,0
		C395.6,384.5,395.1,374.8,390.9,364.2z"/>
	<path class="st1" d="M400,392.2c-0.2-2.3-2.1-4.1-4.4-4.1H279.6c-2.5,0-4.5,2-4.5,4.4c0,0,0,0,0,0h-35.8c0-2.5-2-4.5-4.4-4.5
		c0,0,0,0,0,0H118.7c-2.3,0-4.2,1.8-4.5,4.1c-0.1,1-1.8,25,9.4,47c0.8,1.5,2.3,2.4,4,2.4h0.3c34.6-2.3,69.7-3.7,104.2-4.2l20.6-0.2
		l29.5,0.2c34.5,0.4,69.6,1.9,104.2,4.2c2.1,0.2,4.1-1.2,4.6-3.3C401.7,416.5,400,393.2,400,392.2z"/>
	<path class="st2" d="M288.1,434.4l-12.3-29.8c-0.9-2.3-3.6-3.4-5.8-2.4c-2.1,0.9-3.2,3.2-2.5,5.4l-8.6,2.7l-0.2-0.4
		c-0.8-2.3-3.4-3.5-5.7-2.7s-3.5,3.4-2.7,5.7c0,0.1,0.1,0.3,0.2,0.4l13,31.3c1,2.3,3.6,3.4,5.8,2.4c1.1-0.5,1.9-1.3,2.4-2.4l3.1-7.6
		l7.5,3.1c2.3,0.9,4.9-0.2,5.8-2.4C288.6,436.7,288.6,435.5,288.1,434.4L288.1,434.4z"/>
	<path class="st2" d="M261.4,407.6c-2.3-0.9-4.9,0.1-5.8,2.4l-0.1,0.3l-8.5-2.9c0.8-2.3-0.4-4.8-2.8-5.6c-2.2-0.8-4.7,0.3-5.6,2.5
		l-12.5,30.1c-0.9,2.3,0.1,4.9,2.4,5.8c1.1,0.5,2.3,0.5,3.4,0l7.6-3.1l3.1,7.5c1,2.3,3.6,3.4,5.8,2.4c1.1-0.5,1.9-1.3,2.4-2.4
		l13-31.3C264.8,411.1,263.7,408.5,261.4,407.6C261.4,407.6,261.4,407.6,261.4,407.6z"/>
	<circle class="st3" cx="257.2" cy="392.6" r="26.8"/>
	<circle class="st2" cx="257.2" cy="392.6" r="17.9"/>
	<path class="st4" d="M398.9,210.3c-2.3,5.2-3.8,10.7-4.4,16.4c0,0,0.4,3.4,8.9,6.3c9.6,1.3,27.7,0.2,27.7,0.2V229
		c0,0-16.3-0.1-20.2-3c-0.6-1.9,0-5.2,1.6-8.1L398.9,210.3z"/>
	<path class="st5" d="M405,207.8c0,0,7.8-23.9,8.2-26.5c0,0,7.8-1,13.3,4.1c0,0-11.4,22.9-13.9,26.1
		C410.3,209.9,407.7,208.6,405,207.8z"/>
	<path class="st6" d="M397.1,211.9c0,0,1.5-5.4,5-7.1c1-0.5,12.6,6.1,14.2,8.5c0,0-2.8,7.1-3.9,7.4
		C412.4,220.7,397.9,213.8,397.1,211.9z"/>
	<path class="st7" d="M480,238.9c0,0-8.5,16.6-9.2,17.7c-0.6,1,10.2,0,10.2,0s-4.1,16.7-4.6,19.8c0,0,7-4.7,11-6.3
		c0,0,9.3,34,13.4,40.7c0,0,23.7-42,22.7-45.1c0,0,5,1.8,7.1,2.3s-6.8-17.2-6.8-17.2s8.9,0.5,12,0l-8.7-15.1
		C527.1,235.8,488.8,237.4,480,238.9z"/>
	<path class="st8" d="M522.8,132c-4.9-8.3-12-11.1-22.7-9.6c-7.4,1-12.5,6.7-15.9,15C497.3,140,510.9,138.1,522.8,132z"/>
	<path class="st9" d="M522.8,132c-11.9,6.1-25.5,8-38.6,5.4c-11.9,29-3.2,89.4-3.2,89.4c38.3,5.6,54.8-5.6,54.8-5.6
		C533.2,173.6,530.9,145.5,522.8,132z"/>
	<path class="st10" d="M481,223l-2.1,2.8c0,0,0.8,12.5,0.9,13.6c0,0,40.8,8.8,60.1-5.6c0,0-0.8-12.4-2.5-13.7l-1.8-1.3
		C535.6,218.9,513.7,227.9,481,223z"/>
	<path class="st11" d="M478.6,210.3c0,0,23.9,4.7,57.1-4v-9.9c0,0-19.4,6.2-57.1,3.8L478.6,210.3z"/>
	<path class="st12" d="M551.2,423.3c-18.4-3.8-30.6-25.2-15.5-35.5c0,0-30.8-5-16.7-35.1c0,0-20.2-10.6-4.1-26.3
		c0,0-22.1-28.2,0.8-43.6c0,0,8.7-13.3,25.4,19c0,0,56.3-25,26.2,42.6c16.2-6.6,18.4,13.2,8.8,19.1c25.7,3.7,29,36.7,5.7,48.9
		c7.5,4.8,9.2,28.3-6.8,27.5c0,0,36.4,6.6,22.5,36.4c28.2-14.3,38.1,12.1,31.5,26.4c0,0,49.6,23.1-4.4,58.4
		c38.6,19.8,30.8,83.7-23.1,80.4c32,16.5,8.8,55.1-18.7,36.4c7.7,14.3-12.3,39.7-36.4,38.6s-33.4-28.7-35.4-39.7
		c-13,15.4-27.3-6.6-19.6-16.5c-21,7.7-35-28.7-12-40.8c-36.5,3.3-56-57.3,2.2-68.3c-20-18.7-8.2-57.7,30.5-49.2
		c-8.6-12.5,12.9-17.8,20.8-15.6c0,0-17.1-23.6,11.7-33.5C544.6,452.8,531.7,428,551.2,423.3z"/>
	<path class="st13" d="M514.3,257.9c0,0-12,23.4-13,24.9s14.3,0,14.3,0s-5.8,23.5-6.5,27.9c0,0,9.8-6.6,15.5-8.8
		c0,0,22,50,27.8,59.5c0,0,24.5-61.3,23-65.7c0,0,7.1,2.5,10,3.3s-9.5-24.2-9.5-24.2s12.5,0.7,16.9,0l-12.3-21.2
		C580.7,253.5,526.7,255.8,514.3,257.9z"/>
	<path class="st14" d="M525.2,257.1c0,0-8,15.7-8.7,16.7s9.6,0,9.6,0s-3.8,15.7-4.3,18.7c0,0,6.6-4.4,10.4-5.9
		c0,0,14.7,33.4,18.6,39.8c0,0,16.4-41,15.4-44c0,0,4.7,1.7,6.7,2.2s-6.4-16.2-6.4-16.2s8.4,0.5,11.3,0l-8.2-14.2
		C569.7,254.1,533.5,255.7,525.2,257.1z"/>
	<path class="st4" d="M563.1,130.2c-17.1,9-34,8.6-45.8,6.4c-14.2,34.4-3.8,106.1-3.8,106.1c45.5,6.6,65-6.6,65-6.6
		C575.4,179.6,572.7,146.3,563.1,130.2z"/>
	<path class="st15" d="M513.5,238.3l-2.5,3.4c0,0,1,14.8,1.1,16.2c0,0,48.5,10.5,71.3-6.6c0,0-0.9-14.7-3-16.2l-2.1-1.6
		C578.3,233.4,552.3,244.1,513.5,238.3z"/>
	<path class="st8" d="M510.6,223.2c0,0,28.4,5.6,67.8-4.7v-11.8c0,0-23.1,7.4-67.8,4.5L510.6,223.2z"/>
	<path class="st16" d="M544.6,124.3c0,0,14.4-0.6,20.3,19.6s8.6,69.3,9.5,86.6l-6,1.7C568.3,232.2,567.3,125.9,544.6,124.3z"/>
	<path class="st8" d="M563.1,130.2c-5.9-9.8-20.1-13.2-27-11.4c-8.6,2.2-14.8,8-18.8,17.8C529.1,138.8,546,139.2,563.1,130.2z"/>
	<path class="st17" d="M463.7,143.8c5.8-1.4,21,10.6,10.8,54.9c-8.3,36-61.7,9-61.7,9s9.5-10.1,6.3-16c0,0,26.3,27.1,43.2,7.2
		c2.9-3.4,5.8-21.5,2.1-33.6C460.4,152.1,456.9,145.4,463.7,143.8z"/>
	<path class="st18" d="M412.8,206.9c0.1,0.1,0.2,0.1,0.3,0.2c1.4,0.7,7.1,2.7,10.5-8.4C423.7,198.7,409.8,198,412.8,206.9z"/>
	<path class="st18" d="M427.5,189.8c-2.2-0.7-4.5-0.8-7.3,5.8s-0.8,7,2.5,5.2S430.4,190.7,427.5,189.8z"/>
	<path class="st19" d="M415.8,186.6c-6.4-1.9-13.9,1.4-1.9,7.6S430.3,190.9,415.8,186.6z"/>
	<path class="st19" d="M412.6,192.6c-3.7-1.1-7.4-1.7-8.5,1.4c-0.9,2.3,1.1,3.7,6.6,6.6c5.9,3,9.6,3.1,11.2,0.6
		C423.2,199,420.7,195,412.6,192.6z"/>
	<path class="st19" d="M410.3,199.5c-5.2-1.6-11.4,1.1-1.5,6.2c4.9,2.5,8.5,1.8,9.3,0.1C419.5,202.8,416.3,201.3,410.3,199.5z"/>
	<path class="st20" d="M478.6,422.9c0,0-5.5,16.5-9.9,23.7s-1.6,18.7,5,19.3s28.7-31.2,30.9-35.3s-10.4-11-10.4-11
		S482.4,420.7,478.6,422.9z"/>
	<path class="st20" d="M500.9,419.6c0,0,2.1,12.7,2.7,23.1s-1.3,25.9,6.6,28.6s11.2-1.6,11.2-1.6s9.9-37,8.9-42.2
		s-11.2-12.3-11.2-12.3L500.9,419.6z"/>
	<path class="st17" d="M429,254.3c0,0,8.8,110.7,45.7,170.8c0,0,16,9.4,26.2-8.8c0,0-12.2-25.3-23.6-67.8
		c-7.7-29-13.6-58.4-17.7-88.1L429,254.3z"/>
	<path class="st17" d="M433.3,259.8c0,0,11.2,20.4,17.7,30.9s33.8,119.6,46.6,135c0,0,14.8,5,32.6-7.7c0,0-32.3-70.3-39.2-150
		C491,267.9,449.8,252.1,433.3,259.8z"/>
	<path class="st21" d="M438.7,269.5c0,0,9.3,11.5,13.6,23.6s29.7,99.4,38.8,118.1c0,0-20.2-50.2-29.2-79.1S453.7,297.7,438.7,269.5z
		"/>
	<path class="st12" d="M653.8,501.9c0,0-10.6-8.4,0-13.3c0,0-13-14.5,0-20.7s17.9,10.9,17.9,10.9s3.3-7.3,11.4-2.5s4.9,15.8,0,19.3
		c0,0,9.9,6.2,5,14.6c-4.9,8.4-14.8,0-14.8,0C670.1,520.4,648.1,515.2,653.8,501.9z"/>
	<path class="st17" d="M511.3,138.6c0,0,11,2.4,15.7,5.3c0,0-26.2,75.9-28.1,125.5c0,0-24.9-5.4-46.3-8.3c-0.1-1.1-0.4-1.7-1.6-1.9
		c-8.3-0.9-16.6-0.8-24.8,0.5c0,0,19.1-91.8,38.4-115.8c3.6-0.5,7.1-1.3,10.5-2.3C480.5,140,511.3,138.6,511.3,138.6z"/>
	<path class="st22" d="M478.4,140.4c0,0-11.8,10.1-20.8,9.6c0,0,3.4,9.7,10.5,15.8c0,0-15.1,6.9-17,8.3v61.9c0,0,9.1-30.1,9.8-36.8
		S476.3,147.2,478.4,140.4z"/>
	<path class="st19" d="M507.2,114.1c0,0-5.2,26.2-6.1,28.4c-16.4,16.5-18.5,7.7-17.7,0c-1.3-1.6,4.5-20.7,4.5-27
		C494.3,114.6,500.8,114.1,507.2,114.1z"/>
	<path class="st21" d="M451,238c0.3-0.5-2.4,12.5-2.6,17.3C448.5,255.3,448.8,241.8,451,238z"/>
	
		<ellipse transform="matrix(0.1588 -0.9873 0.9873 0.1588 139.5106 642.6348)" class="st21" cx="446.9" cy="239.4" rx="1.5" ry="1.1"/>
	
		<ellipse transform="matrix(0.1588 -0.9873 0.9873 0.1588 129.4993 649.2285)" class="st21" cx="445.8" cy="248.6" rx="1.5" ry="1.1"/>
	<path class="st22" d="M513.8,140.4c0,0-1,15.8,5.3,23.8c0,0-21.8,7.6-31.1,9.1c6.1,5.1,12.5,9.7,19.2,14c0,0-50.7,26.9-56.2,48.7
		c0,0,5.7-26.7,9.2-35.5S507.5,145.5,513.8,140.4z"/>
	<path class="st23" d="M493.5,142.6c-0.8,0.6-1.9,1.5-3,2.5l-0.9-2.7l-2.7,5.6c-0.6,0.6-0.9,1.5-1.3,2.1l-0.8-7l-1.2,1.3
		c-0.1-0.4-0.2-0.8-0.3-1.2c-4.2,0.4-6,0.7-6,0.7c-5.1,11.4-17,56.6-17,56.6c8.6-16.5,51.1-58.1,51.1-58.1
		C504.1,142.4,498.3,142.5,493.5,142.6z"/>
	<path class="st16" d="M505.8,132.6c0,0-14,8.8-16.2,9.9c0,0,2.1,9.1,3,11.3c0,0,20.4-11.3,22.3-14.3L505.8,132.6z"/>
	<path class="st16" d="M484.2,135.2c-0.4,2.7-0.2,5.4,0.6,7.9c0,0-3.5,7.9-5.4,9.2c0,0-2.5-8.2-2.8-11.2L484.2,135.2z"/>
	<path class="st24" d="M491.8,151.9c0,0-10.7-1.5-11-1s1.5,10.5,1.5,10.5s3.7,2.4,4.2,1.5S491.8,151.9,491.8,151.9z"/>
	<path class="st24" d="M482.2,161.2c0,0-6.5,16.9-31.1,27c-14.2,5.9-38.1,30.6-33.1,52.6c0,0,11.3,13.2,14.6,13.5
		c0,0,9.9-10.2,12.1-13.5c0,0-9.8-29.4,13.6-43.8c27.5-16.9,28-33.9,28-33.9L482.2,161.2z"/>
	<path class="st25" d="M489.6,142.5c0,0-3.5,6.4-4.1,7.6c0,0-0.5-5.5-0.8-6.9c0,0,0.3,6.7,0.6,8C487,148.4,488.4,145.5,489.6,142.5z
		"/>
	<path class="st21" d="M435.8,258.1c-0.5,0.1,11.6-0.6,13.6-0.3l1,1.2c0,0,19.8,3.4,28.5,6.3c0,0-16.4-4.6-28.7-5l-1.1-1.5
		C449,258.8,439.1,257.6,435.8,258.1z"/>
	<path class="st17" d="M514.9,139.5c0,0,58.3,6.9,61.1,48.2c3.8,55.6-86.4,44.3-86.4,44.3s9.6-16.8,4.5-22.7
		c0,0,62.2,18.1,65.8-17.3c2.2-21.8-28.4-31.4-36.8-33S513.7,143.8,514.9,139.5z"/>
	<path class="st4" d="M483.5,239.5c-1.7,7.7,0,10.7,0,10.7c2.3,1.6,37.1-5.4,59.2-13.6c3.7-1.4,8-6.8,10.5-8.2c0,0,5.2,0.7,5.8,4.6
		c0.2,1.4,0,2.9-3.2,5.8c0,0-55.6,17.1-80.2,19.2c-3.9,0.3-7.5-1.8-9.6-2.7c-1.4-2.6,0.1-18.6,0.1-18.6S479,237.3,483.5,239.5z"/>
	<path class="st5" d="M478.6,193.5c0,0-6.6,36.7-7.6,39.9s8,4.7,10.8,3.8s12.8-36.2,13.3-39.2C495.2,198,487.2,192.9,478.6,193.5z"
		/>
	<path class="st6" d="M467.4,229.7c0,0,17.2,3.7,19.4,5.9c0,0-1.2,6.9-3.3,9s-17.3-4.6-18.6-5.7S464.9,233.4,467.4,229.7z"/>
	<path class="st19" d="M498.8,210.9c0,0-1.5-4-4.4-9.7c-0.8,2.5-1.7,4.9-2.8,7.2c0,0-15.1-8.1-17-5.2s-0.8,8.1-0.8,8.1
		s-4.6,0.4-4.5,4c0,1.8,0.1,3.6,0.4,5.4c0,0-3.6,2.8,0.1,5.3s16.3,7.5,19.8,6S499.2,219.1,498.8,210.9z"/>
	<path class="st26" d="M538,100.3c0,0,2.1,6.9,0,8.5s-7.6-3-8.8-4.8c0,0,1.4,5.2-1.1,5.1s-6.6-8.9-6.6-8.9S526.9,91,538,100.3z"/>
	<path class="st19" d="M469.8,29.5c0,0-14.3,38-18.7,49s-7.2,31.4,9.4,36.4s46.1,6.6,56.2-4.4s12.1-20.4,12.1-20.4
		s16.5-39.1,5.5-54.5S478,13,469.8,29.5z"/>
	<path class="st27" d="M474.7,49.7c0,0-2.6,5.1-4.4,5.1s-9.2,1.8-3.7,5.9c3,2.4,7,3.1,10.6,1.8c0,0-9.7-1.8-9.9-4.4s3.7-0.1,5.5-1.7
		S474.7,49.7,474.7,49.7z"/>
	<ellipse transform="matrix(0.288 -0.9576 0.9576 0.288 304.7285 509.6994)" class="st28" cx="495.1" cy="49.9" rx="4.2" ry="2.3"/>
	<ellipse transform="matrix(0.288 -0.9576 0.9576 0.288 288.2352 483.864)" class="st28" cx="469.5" cy="48.1" rx="4.2" ry="2.3"/>
	<path class="st26" d="M477.3,28.7c0,0,7.1,9.6,10.1,9.4s0-5.8,0-5.8s8.5,7.4,14.6,8.5s0-6.1,0-6.1s5.2,2,7.4,0.1
		S489,22.4,477.3,28.7z"/>
	<path class="st29" d="M457.6,74.2c0,0-1.9,28.1,13.2,32.5c0.2,0.1,0.4,0.1,0.6,0.1c4.4-19,26-22.5,35.5-23.1
		c1.6-2.7,2.5-4.5,2.5-4.5C487.9,64.8,457.6,74.2,457.6,74.2z"/>
	<path class="st30" d="M471.4,106.8c16.7,4.4,30.1-14.2,35.5-23.1C497.5,84.3,475.9,87.8,471.4,106.8z"/>
	<path class="st4" d="M458.3,59.7c0,0,4-9.7,6.6-16.8c-1.2-0.7-2.3-1.3-3.3-1.9C459.8,47.1,458.7,53.4,458.3,59.7z"/>
	<path class="st8" d="M565.1,31.1c-1.5-3.7-3.6-7.2-6.1-10.3C535.7-8.1,476.6-10.1,461.6,41c1,0.6,2.1,1.3,3.3,1.9
		c1-2.7,1.8-5,2.1-6.2c0,0,22.6-14.9,56.2,3.9c0,0,3.5,4.2,4.3,13.5C540,51,552.9,44,565.1,31.1z"/>
	<path class="st4" d="M527.5,54.1c0.8,8.8-0.7,22.2-9.8,41c0,0,19.3,10.5,25.3,8.8c5.4-1.5,34.8-41.5,22.1-72.8
		C552.9,44,540,51,527.5,54.1z"/>
	<path class="st31" d="M545.3,64.6c-0.3-0.1-0.6-0.1-0.8-0.2c3.3,1.6,4.5,7.8,2.7,14.4s-6,11.4-9.6,11.1c0.3,0.1,0.5,0.2,0.8,0.3
		c4.6,1.2,9.8-3.5,11.8-10.6S549.9,65.8,545.3,64.6z"/>
	<path class="st32" d="M547.2,78.8c1.8-6.7,0.6-12.9-2.7-14.4c-4.4-0.5-9.1,4.1-10.9,10.8s0,13,4,14.8
		C541.2,90.3,545.4,85.5,547.2,78.8z"/>
	<path class="st33" d="M491,38.9c0,0,9,1,14.2,8.6C505.2,47.5,498.5,33.4,491,38.9z"/>
	<path class="st33" d="M478,38.8c0,0-3.5-1.8-11,4.9C467,43.7,472.4,33.1,478,38.8z"/>
	<path class="st34" d="M306,139.8c-0.2-0.2-0.4-0.5-0.5-0.8l-4.3-13.4c-1.9-5.9-1.2-12.4,2-17.7l7.3-12.4c2.3-3.8,7.2-5.1,11.1-2.8
		c0.6,0.3,1.1,0.8,1.6,1.2l14.3,14.3c0.8,0.8,0.7,2,0,2.8c-0.8,0.7-2,0.7-2.8,0l-14.3-14.3c-1.6-1.6-4.2-1.6-5.8,0
		c-0.2,0.2-0.4,0.5-0.6,0.8l-7.3,12.4c-2.6,4.4-3.2,9.6-1.6,14.5l4.3,13.4c0.3,1-0.2,2.2-1.3,2.5C307.4,140.5,306.6,140.3,306,139.8
		L306,139.8z"/>
	<path class="st35" d="M329.3,163.1c-0.8-0.8-0.8-2,0-2.8c0.5-0.5,1.3-0.7,2-0.5l13.3,4.3c4.8,1.5,10.1,0.9,14.5-1.6l12.4-7.3
		c1.9-1.1,2.6-3.7,1.4-5.6c-0.2-0.3-0.4-0.6-0.6-0.8L358,134.4c-0.8-0.8-0.7-2,0-2.8c0.8-0.7,2-0.7,2.8,0l14.3,14.3
		c3.2,3.2,3.2,8.3,0,11.4c-0.5,0.5-1,0.9-1.6,1.2l-12.4,7.3c-5.4,3.2-11.8,3.9-17.7,2l-13.4-4.3
		C329.8,163.5,329.5,163.3,329.3,163.1z"/>
	
		<rect x="289.8" y="160.5" transform="matrix(0.7071 -0.7071 0.7071 0.7071 -27.6262 263.3721)" class="st36" width="28.5" height="9.2"/>
	<path class="st37" d="M309.8,159.3L309.8,159.3c-9.5-9.5-9.6-24.9-0.1-34.5l26.6-27.1l35,35.1l-27.1,26.6
		C334.6,168.8,319.3,168.8,309.8,159.3z"/>
	
		<rect x="292" y="158.7" transform="matrix(0.7071 -0.7071 0.7071 0.7071 -37.7845 259.1606)" class="st35" width="3.9" height="33"/>
	
		<rect x="297.9" y="172.9" transform="matrix(0.7071 -0.7071 0.7071 0.7071 -40.2145 265.0231)" class="st37" width="3.9" height="16.4"/>
	<path class="st37" d="M271.6,162.5l35.1,35l0,0c2.3-2.3,2.3-6,0-8.3l-26.8-26.8C277.6,160.2,273.9,160.2,271.6,162.5L271.6,162.5z"
		/>
	<path class="st38" d="M247.7,178.9l42.6,42.6c1.1,1.1,2.8,1.1,3.9,0c0,0,0,0,0,0l16.4-16.3c1.1-1.1,1.1-2.8,0-3.9c0,0,0,0,0,0
		l-42.6-42.6c-1.1-1.1-2.8-1.1-3.9,0c0,0,0,0,0,0L247.7,175C246.6,176,246.6,177.8,247.7,178.9C247.7,178.9,247.7,178.9,247.7,178.9
		z"/>
	
		<rect x="271.4" y="166.8" transform="matrix(0.7071 -0.7071 0.7071 0.7071 -52.6867 252.9792)" class="st39" width="15.3" height="46.6"/>
	<path class="st37" d="M201,207.2c-18.5-18.5-48.4-18.4-66.8,0s-18.4,48.4,0,66.8c9,9,21.2,14,33.9,13.8c15.2-0.2,22.2-2.3,32.9,8.4
		l3.4,3.4l22.3-22.3l-3.1-3.1c-10.6-10.6-9.1-17.4-8.7-32.4C215.2,228.9,210.2,216.3,201,207.2z"/>
	<path id="SVGCleanerId_0" class="st34" d="M128.3,201.4c-1.5,1.5-3.9,1.5-5.4,0L104,182.5c-1.4-1.5-1.4-4,0.2-5.4
		c1.5-1.4,3.8-1.4,5.2,0l18.9,18.9C129,197.1,127.3,199.3,128.3,201.4z"/>
	<path class="st35" d="M174.2,179.6c-1.5,1.5-3.9,1.5-5.4,0c-0.7-0.7-1.1-1.7-1.1-2.7v-26.7c0-2.1,1.7-3.8,3.8-3.8
		c2.1,0,3.8,1.7,3.8,3.8v26.7C175.4,177.9,175,178.9,174.2,179.6z"/>
	<path class="st35" d="M228.6,184.7L228.6,184.7l-18.9,18.9c-1.5,1.4-4,1.4-5.4-0.2c-1.4-1.5-1.4-3.8,0-5.2l0,0l18.9-18.9
		c1.4-1.5,3.9-1.6,5.4-0.2c1.5,1.4,1.6,3.9,0.2,5.4C228.7,184.6,228.6,184.6,228.6,184.7z"/>
	<path id="SVGCleanerId_0-2" class="st34" d="M128.3,201.4c-1.5,1.5-3.9,1.5-5.4,0L104,182.5c-1.4-1.5-1.4-4,0.2-5.4
		c1.5-1.4,3.8-1.4,5.2,0l18.9,18.9C129,197.1,127.3,199.3,128.3,201.4z"/>
	<path class="st34" d="M106.6,247.3c-0.7,0.7-1.7,1.1-2.7,1.1H77.2c-2.1,0-3.8-1.7-3.8-3.8c0-2.1,1.7-3.8,3.8-3.8c0,0,0,0,0,0h26.7
		c2.1,0,3.8,1.7,3.8,3.8C107.7,245.6,107.3,246.6,106.6,247.3L106.6,247.3z"/>
	<path class="st34" d="M111.7,301.6c-1.5,1.4-4,1.4-5.4-0.2c-1.4-1.5-1.4-3.8,0-5.2l18.9-18.9l0,0c1.5-1.4,4-1.4,5.4,0.2
		c1.4,1.5,1.4,3.8,0,5.2C130.6,282.7,111.7,301.6,111.7,301.6z"/>
	<path class="st40" d="M238,311.1c-1.1,1.1-2.9,1.3-4.3,0.4l-73.2-51c-1.5-1.1-1.9-3.1-0.8-4.6c0.1-0.2,0.2-0.3,0.4-0.5l22.3-22.3
		c1.3-1.3,3.4-1.3,4.7,0c0.1,0.1,0.3,0.3,0.4,0.5l51,73.2C239.4,308.1,239.2,309.9,238,311.1z M167.6,257.3l54.7,38l-38-54.7
		L167.6,257.3z"/>
	<path class="st41" d="M240.4,313.4L240.4,313.4c-6.2,6.1-16.1,6.1-22.3,0l-16.4-16.4l22.3-22.3l16.4,16.4
		C246.5,297.3,246.5,307.3,240.4,313.4z"/>
</g>
</svg>
