<?xml version="1.0" encoding="utf-8"?>
<!-- Generator: Adobe Illustrator 21.1.0, SVG Export Plug-In . SVG Version: 6.00 Build 0)  -->
<svg version="1.1" id="Layer_1" xmlns="http://www.w3.org/2000/svg" xmlns:xlink="http://www.w3.org/1999/xlink" x="0px" y="0px"
	 viewBox="0 0 727.5 424.7" style="enable-background:new 0 0 727.5 424.7;" xml:space="preserve">
<style type="text/css">
	.st0{fill:#FEED9B;}
	.st1{fill:#7F9DD3;}
	.st2{fill:#5173A5;}
	.st3{fill:#897E92;}
	.st4{fill:#414042;}
	.st5{fill:#F8F9F9;}
	.st6{fill:#5B86E5;}
	.st7{fill:#AEBDC1;}
	.st8{fill:#C2CDD0;}
	.st9{fill:#93A7AD;}
	.st10{fill:#6C6C6C;}
	.st11{fill:none;}
	.st12{fill:#81A4E2;}
	.st13{fill:#836D64;}
	.st14{fill:#A98B80;}
	.st15{fill:#EEEBE5;}
	.st16{clip-path:url(#SVGID_2_);}
	.st17{fill:#655771;}
	.st18{fill:#E9E8E8;}
	.st19{fill:#845B71;}
	.st20{fill:#F1F2F2;}
	.st21{fill:#B54341;}
	.st22{fill:#8DC63F;}
	.st23{fill:#C84B49;}
	.st24{fill:#595959;}
	.st25{fill:#5F5F5F;}
	.st26{fill:#7A7A7A;}
	.st27{fill:#AC9085;}
	.st28{fill:#72BF44;}
	.st29{fill:#009444;}
</style>
<title>loginIllustration</title>
<g id="Layer_2">
	<g id="Layer_2-2">
		<path class="st0" d="M421.2,147.6h-19.4c-1.2,0-2.1-0.9-2.1-2.1c0-1.2,0.9-2.1,2.1-2.1c0,0,0,0,0,0h19.4c1.2,0,2.1,0.9,2.1,2.1
			C423.3,146.6,422.4,147.5,421.2,147.6C421.2,147.6,421.2,147.6,421.2,147.6L421.2,147.6z"/>
		<path class="st1" d="M479.9,147.1h-44.5c-1.2,0-2.1-0.9-2.1-2.1c0-1.2,0.9-2.1,2.1-2.1c0,0,0,0,0,0h44.5c1.2,0,2.1,0.9,2.1,2.1
			C482,146.2,481.1,147.1,479.9,147.1C479.9,147.1,479.9,147.1,479.9,147.1L479.9,147.1z"/>
		<path class="st1" d="M101.1,262.7H39.7c-1.2,0-2.1-0.9-2.1-2.1s0.9-2.1,2.1-2.1h61.4c1.2,0,2.1,0.9,2.1,2.1
			S102.2,262.7,101.1,262.7z"/>
		<path class="st1" d="M53,286.5H2.1c-1.2,0-2.1-0.9-2.1-2.1s0.9-2.1,2.1-2.1H53c1.2,0,2.1,0.9,2.1,2.1S54.2,286.5,53,286.5z"/>
		<path class="st0" d="M426.1,262.7h-40.6c-1.2,0-2.1-0.9-2.1-2.1s0.9-2.1,2.1-2.1h40.6c1.2,0,2.1,0.9,2.1,2.1
			S427.2,262.7,426.1,262.7z"/>
		<path class="st1" d="M27.6,262.7h-8.9c-1.2,0-2.1-0.9-2.1-2.1s0.9-2.1,2.1-2.1h8.9c1.2,0,2.1,0.9,2.1,2.1S28.7,262.7,27.6,262.7z"
			/>
		<path class="st1" d="M117.9,74.4H70.4c-1.2,0-2.1-0.9-2.1-2.1s0.9-2.1,2.1-2.1c0,0,0,0,0,0h47.5c1.2,0,2.1,0.9,2.1,2.1
			S119.1,74.4,117.9,74.4C117.9,74.4,117.9,74.4,117.9,74.4z"/>
		<path class="st1" d="M135.4,90.3h-25.3c-1.2,0-2.1-0.9-2.1-2.1s0.9-2.1,2.1-2.1c0,0,0,0,0,0h25.3c1.2,0,2.1,0.9,2.1,2.1
			S136.5,90.3,135.4,90.3C135.4,90.3,135.4,90.3,135.4,90.3z"/>
		<path class="st0" d="M325.6,256.8h-19.4c-1.2,0-2.1-0.9-2.1-2.1c0-1.2,0.9-2.1,2.1-2.1c0,0,0,0,0,0h19.4c1.2,0,2.1,0.9,2.1,2.1
			C327.7,255.8,326.8,256.8,325.6,256.8C325.6,256.8,325.6,256.8,325.6,256.8L325.6,256.8z"/>
		<path class="st0" d="M292,257.2h-44.4c-1.2,0-2.1-0.9-2.1-2.1s0.9-2.1,2.1-2.1c0,0,0,0,0,0H292c1.2,0,2.1,0.9,2.1,2.1
			C294.1,256.2,293.2,257.2,292,257.2C292,257.2,292,257.2,292,257.2z"/>
		<path class="st1" d="M687.7,141.6h-61.4c-1.2,0-2.1-0.9-2.1-2.1c0-1.2,0.9-2.1,2.1-2.1c0,0,0,0,0,0h61.4c1.2,0,2.1,0.9,2.1,2.1
			C689.9,140.7,688.9,141.6,687.7,141.6C687.8,141.6,687.8,141.6,687.7,141.6L687.7,141.6z"/>
		<path class="st1" d="M725.4,117.8h-50.9c-1.2,0-2.1-0.9-2.1-2.1s0.9-2.1,2.1-2.1c0,0,0,0,0,0h50.9c1.2,0,2.1,0.9,2.1,2.1
			S726.5,117.8,725.4,117.8C725.4,117.8,725.4,117.8,725.4,117.8L725.4,117.8z"/>
		<path class="st0" d="M342,141.6h-40.6c-1.2,0-2.1-0.9-2.1-2.1c0-1.2,0.9-2.1,2.1-2.1c0,0,0,0,0,0H342c1.2,0,2.1,0.9,2.1,2.1
			C344.1,140.7,343.2,141.6,342,141.6C342,141.6,342,141.6,342,141.6z"/>
		<path class="st1" d="M708.8,141.6h-8.9c-1.2,0-2.1-0.9-2.1-2.1c0-1.2,0.9-2.1,2.1-2.1c0,0,0,0,0,0h8.9c1.2,0,2.1,0.9,2.1,2.1
			C710.9,140.7,709.9,141.6,708.8,141.6C708.8,141.6,708.8,141.6,708.8,141.6z"/>
		<path class="st0" d="M657.1,329.9h-47.5c-1.2,0-2.1-0.9-2.1-2.1s0.9-2.1,2.1-2.1l0,0h47.5c1.2,0,2.1,0.9,2.1,2.1
			S658.2,329.9,657.1,329.9L657.1,329.9L657.1,329.9z"/>
		<path class="st0" d="M617.4,314h-25.2c-1.2,0-2.1-0.9-2.1-2.1s0.9-2.1,2.1-2.1h25.2c1.2,0,2.1,0.9,2.1,2.1S618.5,314,617.4,314z"
			/>
		<path class="st2" d="M660.9,260.5h-48.4v-48.2h31.4c1.2,0,2.2-1,2.2-2.2v-52.7c0-1.2-1-2.2-2.2-2.2h-57.2c0.9-1.4,1.4-3,1.4-4.6
			V70.8l34.1-17.2v30.8c-4.1,1-7,4.7-7,9v21.2c0,5.1,4.1,9.3,9.3,9.3s9.3-4.1,9.3-9.3V93.5c0-4.3-2.9-8-7-9V50c0,0,0,0,0-0.1
			c0-0.2,0-0.3-0.1-0.5c0-0.1,0-0.1-0.1-0.2c0-0.1-0.1-0.2-0.2-0.3l-0.1-0.1c-0.1-0.1-0.2-0.3-0.3-0.4l-0.1-0.1
			c-0.1-0.1-0.2-0.2-0.3-0.2l-0.1-0.1L530.5,0.2c-0.6-0.3-1.4-0.3-2,0L433.9,48c-1.1,0.6-1.5,1.9-1,3c0.2,0.4,0.6,0.8,1,1l38.9,19.7
			v78.9c0,1.6,0.5,3.2,1.4,4.6h-32.1c-4.2,0-8.3,1.3-11.8,3.7V152c0-0.6,0-1.3-0.1-1.9c-1-12.1-10.2-21.8-22.2-23.4
			c1.3-2,2.6-4,3.7-6.1c0.5-0.9,0.2-2-0.7-2.5c-0.4-0.2-10.4-5.3-20-5.3c-1,0-1.9,0.1-2.9,0.2l7.5-48c0.2-1-0.5-2-1.5-2.1
			c0,0-0.1,0-0.1,0l-29.4-4.6c-1-0.2-2,0.5-2.1,1.6l-2.2,14.3l0,0l-2.5,16l0,0l-2.2,14.2l-0.1-81.5c0-1-0.8-1.9-1.9-1.9h-8.4h-26.8
			h-8.4c-1,0-1.9,0.8-1.9,1.9c0,0,0,0,0,0l0.1,80.2l-4.6-14.5l-2.6-8.4c0,0,0,0,0-0.1c-0.1-0.2-0.2-0.3-0.3-0.5l-0.1-0.1l0,0
			l-12.4-13.4c-0.7-0.8-1.9-0.8-2.6-0.1c-0.3,0.3-0.5,0.7-0.6,1.1l-2.5,18c0,0,0,0,0,0.1s0,0.1,0,0.1c0,0.2,0,0.4,0.1,0.6
			c0,0,0,0.1,0,0.1l2.6,8.4l12.5,40c-4.3,4.3-7,10-7.5,16.1l0,0l0,0c0,0.6-0.1,1.2-0.1,1.9v3.1H164l8.1-4.3l11.1-5.9l10-5.4
			c7.9,4.3,16.8,6.6,25.8,6.6l0,0c29.8,0,54-24.2,53.9-54.1c0-29.8-24.2-54-54.1-53.9c-14.6,0-28.5,5.9-38.6,16.3l-7.7-14.4
			c-0.6-1.1-2-1.5-3.1-0.9c-1.1,0.6-1.5,2-0.9,3.1L177,58c-6.8,8.3-10.9,18.5-11.9,29.2l-10,5.4l-11,5.9l0,0l-13.5,7.2
			c-1.1,0.6-1.5,1.9-0.9,3l4.7,8.7l-0.2,0.1c-8.5,4.5-11.8,15.1-7.3,23.7c3.1,5.8,9,9.3,15.6,9.3l0,0c2.9,0,5.7-0.7,8.2-2.1l0.2-0.1
			l3.6,6.8h-47.9c-11.4,0-20.7,9.3-20.7,20.7v15.7c0,6.3,2.9,12.3,7.9,16.2H73c-11.4,0-20.7,9.3-20.7,20.7v15.7
			c0,11.4,9.3,20.7,20.7,20.7h37.8c-5,3.9-7.9,9.9-7.9,16.2V297c0,6.3,2.9,12.3,7.9,16.2H93.9c-11.4,0-20.7,9.3-20.7,20.7v15.7
			c0,11.4,9.3,20.7,20.7,20.7h196.4v13.2c0,1,0.8,1.9,1.9,1.9h110.6v10.8c0,14.8,12,26.9,26.9,26.9h26.7c14.8,0,26.9-12,26.9-26.9
			v-25.9h148.1c1.2,0,2.2-1,2.2-2.2v-50.4h27.5c1.2,0,2.2-1,2.2-2.2v-52.7C663.2,261.6,662.2,260.6,660.9,260.5z"/>
		<path class="st3" d="M72,348.1v-9.7c0-6.3,8.3-11.3,18.5-11.3H282V317H80.2c-10.2,0-18.5,8.3-18.5,18.5l0,0v15.7
			c0,10.2,8.3,18.5,18.5,18.5l0,0H282v-10.2H90.5C80.3,359.5,72,354.4,72,348.1z"/>
		<path class="st4" d="M282,371.9H80.2c-11.4,0-20.7-9.3-20.7-20.7v-15.7c0-11.4,9.3-20.7,20.7-20.7H282c1.2,0,2.2,1,2.2,2.2v10.2
			c0,1.2-1,2.2-2.2,2.2H90.5c-8.8,0-16.2,4.2-16.2,9.1v9.7c0,4.9,7.4,9.1,16.2,9.1H282c1.2,0,2.2,1,2.2,2.2v10.2
			C284.2,370.9,283.2,371.9,282,371.9L282,371.9z M80.2,319.2c-8.9,0-16.2,7.3-16.2,16.2v15.7c0,9,7.3,16.2,16.2,16.2h199.5v-5.7
			H90.5c-11.6,0-20.7-6-20.7-13.6v-9.7c0-7.6,9.1-13.6,20.7-13.6h189.3v-5.7L80.2,319.2z"/>
		<path class="st5" d="M90.5,327.1c-10.2,0-18.5,5.1-18.5,11.3v9.7c0,6.3,8.3,11.3,18.5,11.3H282v-32.3H90.5z"/>
		<path class="st4" d="M282,361.7H90.5c-11.6,0-20.7-6-20.7-13.6v-9.7c0-7.6,9.1-13.6,20.7-13.6H282c1.2,0,2.2,1,2.2,2.2v32.3
			C284.2,360.7,283.2,361.7,282,361.7C282,361.7,282,361.7,282,361.7z M90.5,329.4c-8.8,0-16.2,4.2-16.2,9.1v9.7
			c0,4.9,7.4,9.1,16.2,9.1h189.3v-27.8H90.5z"/>
		<path class="st4" d="M272.6,337.8H95.3c-1.2,0-2.2-1-2.2-2.2c0-1.2,1-2.2,2.2-2.2h177.3c1.2,0,2.2,1,2.2,2.2
			C274.8,336.8,273.8,337.8,272.6,337.8z"/>
		<path class="st4" d="M272.6,344.8H95.3c-1.2,0-2.2-1-2.2-2.2c0-1.2,1-2.2,2.2-2.2h177.3c1.2,0,2.2,1,2.2,2.2
			C274.8,343.8,273.8,344.8,272.6,344.8z"/>
		<path class="st4" d="M272.6,353.2H95.3c-1.2,0-2.2-1-2.2-2.2c0-1.2,1-2.2,2.2-2.2h177.3c1.2,0,2.2,1,2.2,2.2
			C274.8,352.2,273.8,353.2,272.6,353.2z"/>
		<path class="st6" d="M101.7,295.4v-9.7c0-6.3,8.3-11.3,18.5-11.3h191.6v-10.2H110c-10.2,0-18.5,8.3-18.5,18.5l0,0v15.7
			c0,10.2,8.3,18.5,18.5,18.5l0,0h201.8v-10.2H120.2C110,306.8,101.7,301.7,101.7,295.4z"/>
		<path class="st4" d="M311.8,319.2H110c-11.4,0-20.7-9.3-20.7-20.7v-15.7c0-11.4,9.3-20.7,20.7-20.7h201.8c1.2,0,2.2,1,2.2,2.2
			v10.2c0,1.2-1,2.2-2.2,2.2H120.2c-8.8,0-16.2,4.2-16.2,9.1v9.7c0,4.9,7.4,9.1,16.2,9.1h191.5c1.2,0,2.2,1,2.2,2.2v10.2
			C314,318.2,313,319.2,311.8,319.2C311.8,319.2,311.8,319.2,311.8,319.2z M110,266.5c-9,0-16.2,7.3-16.2,16.2v15.7
			c0,9,7.3,16.2,16.2,16.2h199.5V309H120.2c-11.6,0-20.7-6-20.7-13.6v-9.7c0-7.6,9.1-13.6,20.7-13.6h189.3v-5.7L110,266.5z"/>
		<path class="st5" d="M120.2,274.4c-10.2,0-18.5,5.1-18.5,11.3v9.7c0,6.3,8.3,11.3,18.5,11.3h191.5v-32.3H120.2z"/>
		<path class="st4" d="M311.8,309H120.2c-11.6,0-20.7-6-20.7-13.6v-9.7c0-7.6,9.1-13.6,20.7-13.6h191.5c1.2,0,2.2,1,2.2,2.2v32.3
			C314,308,313,309,311.8,309C311.8,309,311.8,309,311.8,309z M120.2,276.7c-8.8,0-16.2,4.2-16.2,9.1v9.7c0,4.9,7.4,9.1,16.2,9.1
			h189.3v-27.8H120.2z"/>
		<path class="st4" d="M302.4,285.1H125.1c-1.2,0-2.2-1-2.2-2.2c0-1.2,1-2.2,2.2-2.2h177.3c1.2,0,2.2,1,2.2,2.2
			C304.6,284.1,303.6,285.1,302.4,285.1z"/>
		<path class="st4" d="M302.4,292.1H125.1c-1.2,0-2.2-1-2.2-2.2c0-1.2,1-2.2,2.2-2.2h177.3c1.2,0,2.2,1,2.2,2.2
			C304.6,291.1,303.6,292.1,302.4,292.1z"/>
		<path class="st4" d="M302.4,300.5H125.1c-1.2,0-2.2-1-2.2-2.2c0-1.2,1-2.2,2.2-2.2h177.3c1.2,0,2.2,1,2.2,2.2
			C304.6,299.5,303.6,300.5,302.4,300.5z"/>
		<path class="st3" d="M51.1,242.8v-9.7c0-6.3,8.3-11.3,18.5-11.3h191.6v-10.2H59.3c-10.2,0-18.5,8.3-18.5,18.5l0,0v15.7
			c0,10.2,8.3,18.5,18.5,18.5h201.8v-10.2H69.6C59.4,254.1,51.1,249,51.1,242.8z"/>
		<path class="st4" d="M261.1,266.5H59.3c-11.4,0-20.7-9.3-20.7-20.7v-15.7c0-11.4,9.3-20.7,20.7-20.7h201.8c1.2,0,2.2,1,2.2,2.2
			v10.2c0,1.2-1,2.2-2.2,2.2H69.6c-8.8,0-16.2,4.2-16.2,9.1v9.7c0,4.9,7.4,9.1,16.2,9.1h191.6c1.2,0,2.2,1,2.2,2.2v10.2
			C263.4,265.5,262.4,266.5,261.1,266.5z M59.3,213.8c-9,0-16.2,7.3-16.2,16.2v15.7c0,8.9,7.3,16.2,16.2,16.2h199.6v-5.7H69.6
			c-11.6,0-20.7-6-20.7-13.6v-9.6c0-7.6,9.1-13.6,20.7-13.6h189.3v-5.7L59.3,213.8z"/>
		<path class="st5" d="M69.6,221.8c-10.2,0-18.5,5.1-18.5,11.3v9.7c0,6.3,8.3,11.3,18.5,11.3h191.6v-32.3H69.6z"/>
		<path class="st4" d="M261.1,256.3H69.6c-11.6,0-20.7-6-20.7-13.6v-9.6c0-7.6,9.1-13.6,20.7-13.6h191.6c1.2,0,2.2,1,2.2,2.2v32.3
			C263.4,255.3,262.4,256.3,261.1,256.3z M69.6,224c-8.8,0-16.2,4.2-16.2,9.1v9.7c0,4.9,7.4,9.1,16.2,9.1h189.3V224H69.6z"/>
		<path class="st4" d="M251.7,232.5H74.5c-1.2,0-2.2-1-2.2-2.2c0-1.2,1-2.2,2.2-2.2c0,0,0,0,0,0h177.3c1.2,0,2.2,1,2.2,2.2
			C254,231.5,253,232.5,251.7,232.5z"/>
		<path class="st4" d="M251.7,239.4H74.5c-1.2,0-2.2-1-2.2-2.2c0-1.2,1-2.2,2.2-2.2c0,0,0,0,0,0h177.3c1.2,0,2.2,1,2.2,2.2
			S253,239.4,251.7,239.4C251.7,239.4,251.7,239.4,251.7,239.4z"/>
		<path class="st4" d="M251.7,247.9H74.5c-1.2,0-2.2-1-2.2-2.2c0-1.2,1-2.2,2.2-2.2h177.3c1.2,0,2.2,1,2.2,2.2
			C254,246.9,253,247.9,251.7,247.9z"/>
		<path class="st7" d="M84.7,190.1v-9.7c0-6.3,8.3-11.3,18.5-11.3h191.5v-10.2H92.9c-10.2,0-18.5,8.3-18.5,18.5l0,0v15.7
			c0,10.2,8.3,18.5,18.5,18.5l0,0h201.8v-10.2H103.2C93,201.4,84.7,196.3,84.7,190.1z"/>
		<path class="st4" d="M294.8,213.8H92.9c-11.4,0-20.7-9.3-20.7-20.7v-15.7c0-11.4,9.3-20.7,20.7-20.7h201.8c1.2,0,2.2,1,2.2,2.2
			v10.2c0,1.2-1,2.2-2.2,2.2H103.2c-8.8,0-16.2,4.2-16.2,9.1v9.7c0,4.9,7.4,9.1,16.2,9.1h191.6c1.2,0,2.2,1,2.2,2.2v10.2
			C297,212.8,296,213.8,294.8,213.8C294.8,213.8,294.8,213.8,294.8,213.8z M92.9,161.2c-9,0-16.2,7.3-16.2,16.2v15.7
			c0,9,7.3,16.2,16.2,16.2h199.6v-5.7H103.2c-11.6,0-20.7-6-20.7-13.6v-9.7c0-7.6,9.1-13.6,20.7-13.6h189.3v-5.7L92.9,161.2z"/>
		<path class="st5" d="M103.2,169.1c-10.2,0-18.5,5.1-18.5,11.3v9.7c0,6.3,8.3,11.3,18.5,11.3h191.6v-32.3H103.2z"/>
		<path class="st4" d="M294.8,203.6H103.2c-11.6,0-20.7-6-20.7-13.6v-9.7c0-7.6,9.1-13.6,20.7-13.6h191.6c1.2,0,2.2,1,2.2,2.2v32.3
			C297,202.6,296,203.6,294.8,203.6C294.8,203.6,294.8,203.6,294.8,203.6z M103.2,171.3c-8.8,0-16.2,4.2-16.2,9.1v9.7
			c0,4.9,7.4,9.1,16.2,9.1h189.3v-27.8H103.2z"/>
		<path class="st4" d="M285.3,179.8H108.1c-1.2,0-2.2-1-2.2-2.2c0-1.2,1-2.2,2.2-2.2h177.3c1.2,0,2.2,1,2.2,2.2
			C287.6,178.8,286.6,179.8,285.3,179.8z"/>
		<path class="st4" d="M285.3,186.7H108.1c-1.2,0-2.2-1-2.2-2.2c0-1.2,1-2.2,2.2-2.2c0,0,0,0,0,0h177.3c1.2,0,2.2,1,2.2,2.2
			C287.6,185.7,286.6,186.7,285.3,186.7z"/>
		<path class="st4" d="M285.3,195.2H108.1c-1.2,0-2.2-1-2.2-2.2c0-1.2,1-2.2,2.2-2.2c0,0,0,0,0,0h177.3c1.2,0,2.2,1,2.2,2.2
			C287.6,194.2,286.6,195.2,285.3,195.2z"/>
		<path class="st3" d="M407.5,348.1v-9.7c0-6.3,8.3-11.3,18.5-11.3h191.5V317H415.7c-10.2,0-18.5,8.3-18.5,18.5l0,0v15.7
			c0,10.2,8.3,18.5,18.5,18.5l0,0h201.8v-10.2H425.9C415.7,359.5,407.5,354.4,407.5,348.1z"/>
		<path class="st4" d="M617.5,371.9H415.7c-11.4,0-20.7-9.3-20.7-20.7v-15.7c0-11.4,9.3-20.7,20.7-20.7h201.8c1.2,0,2.2,1,2.2,2.2
			v10.2c0,1.2-1,2.2-2.2,2.2H425.9c-8.8,0-16.2,4.2-16.2,9.1v9.7c0,4.9,7.4,9.1,16.2,9.1h191.5c1.2,0,2.2,1,2.2,2.2v10.2
			C619.7,370.9,618.7,371.9,617.5,371.9L617.5,371.9z M415.7,319.2c-9,0-16.2,7.3-16.2,16.2v15.7c0,9,7.3,16.2,16.2,16.2h199.6v-5.7
			H425.9c-11.6,0-20.7-6-20.7-13.6v-9.7c0-7.6,9.1-13.6,20.7-13.6h189.3v-5.7L415.7,319.2z"/>
		<path class="st5" d="M425.9,327.1c-10.2,0-18.5,5.1-18.5,11.3v9.7c0,6.3,8.3,11.3,18.5,11.3h191.5v-32.3H425.9z"/>
		<path class="st4" d="M617.5,361.7H425.9c-11.6,0-20.7-6-20.7-13.6v-9.7c0-7.6,9.1-13.6,20.7-13.6h191.5c1.2,0,2.2,1,2.2,2.2v32.3
			C619.7,360.7,618.7,361.7,617.5,361.7C617.5,361.7,617.5,361.7,617.5,361.7z M425.9,329.4c-8.8,0-16.2,4.2-16.2,9.1v9.7
			c0,4.9,7.4,9.1,16.2,9.1h189.3v-27.8H425.9z"/>
		<path class="st4" d="M608.1,337.8H430.8c-1.2,0-2.2-1-2.2-2.2c0-1.2,1-2.2,2.2-2.2l0,0h177.3c1.2,0,2.2,1,2.2,2.2
			C610.3,336.8,609.3,337.8,608.1,337.8z"/>
		<path class="st4" d="M608.1,344.8H430.8c-1.2,0-2.2-1-2.2-2.2c0-1.2,1-2.2,2.2-2.2l0,0h177.3c1.2,0,2.2,1,2.2,2.2
			C610.3,343.8,609.3,344.8,608.1,344.8z"/>
		<path class="st4" d="M608.1,353.2H430.8c-1.2,0-2.2-1-2.2-2.2c0-1.2,1-2.2,2.2-2.2l0,0h177.3c1.2,0,2.2,1,2.2,2.2
			C610.3,352.2,609.3,353.2,608.1,353.2z"/>
		<path class="st7" d="M437.2,295.4v-9.7c0-6.3,8.3-11.3,18.5-11.3h191.5v-10.2H445.4c-10.2,0-18.5,8.3-18.5,18.5l0,0v15.7
			c0,10.2,8.3,18.5,18.5,18.5l0,0h201.8v-10.2H455.7C445.5,306.8,437.2,301.7,437.2,295.4z"/>
		<path class="st4" d="M647.2,319.2H445.4c-11.4,0-20.7-9.3-20.7-20.7v-15.7c0-11.4,9.3-20.7,20.7-20.7h201.8c1.2,0,2.2,1,2.2,2.2
			v10.2c0,1.2-1,2.2-2.2,2.2H455.7c-8.8,0-16.2,4.2-16.2,9.1v9.7c0,4.9,7.4,9.1,16.2,9.1h191.5c1.2,0,2.2,1,2.2,2.2v10.2
			C649.5,318.2,648.5,319.2,647.2,319.2C647.3,319.2,647.2,319.2,647.2,319.2z M445.4,266.5c-9,0-16.2,7.3-16.2,16.2v15.7
			c0,9,7.3,16.2,16.2,16.2H645V309H455.7c-11.6,0-20.7-6-20.7-13.6v-9.7c0-7.6,9.1-13.6,20.7-13.6H645v-5.7L445.4,266.5z"/>
		<path class="st5" d="M455.7,274.4c-10.2,0-18.5,5.1-18.5,11.3v9.7c0,6.3,8.3,11.3,18.5,11.3h191.5v-32.3H455.7z"/>
		<path class="st4" d="M647.2,309H455.7c-11.6,0-20.7-6-20.7-13.6v-9.7c0-7.6,9.1-13.6,20.7-13.6h191.5c1.2,0,2.2,1,2.2,2.2v32.3
			C649.5,308,648.5,309,647.2,309C647.2,309,647.2,309,647.2,309z M455.7,276.7c-8.8,0-16.2,4.2-16.2,9.1v9.7
			c0,4.9,7.4,9.1,16.2,9.1H645v-27.8H455.7z"/>
		<path class="st4" d="M637.8,285.1H460.5c-1.2,0-2.2-1-2.2-2.2c0-1.2,1-2.2,2.2-2.2l0,0h177.3c1.2,0,2.2,1,2.2,2.2
			C640.1,284.1,639.1,285.1,637.8,285.1z"/>
		<path class="st4" d="M637.8,292.1H460.5c-1.2,0-2.2-1-2.2-2.2c0-1.2,1-2.2,2.2-2.2l0,0h177.3c1.2,0,2.2,1,2.2,2.2
			C640.1,291.1,639.1,292.1,637.8,292.1z"/>
		<path class="st4" d="M637.8,300.5H460.5c-1.2,0-2.2-1-2.2-2.2c0-1.2,1-2.2,2.2-2.2l0,0h177.3c1.2,0,2.2,1,2.2,2.2
			C640.1,299.5,639.1,300.5,637.8,300.5z"/>
		<path class="st3" d="M386.6,242.8v-9.7c0-6.3,8.3-11.3,18.5-11.3h191.5v-10.2H394.8c-10.2,0-18.5,8.3-18.5,18.5l0,0v15.7
			c0,10.2,8.3,18.5,18.5,18.5h201.8v-10.2H405.1C394.9,254.1,386.6,249,386.6,242.8z"/>
		<path class="st4" d="M596.6,266.5H394.8c-11.4,0-20.7-9.3-20.7-20.7v-15.7c0-11.4,9.3-20.7,20.7-20.7h201.8c1.2,0,2.2,1,2.2,2.2
			v10.2c0,1.2-1,2.2-2.2,2.2H405.1c-8.8,0-16.2,4.2-16.2,9.1v9.7c0,4.9,7.4,9.1,16.2,9.1h191.5c1.2,0,2.2,1,2.2,2.2v10.2
			C598.8,265.5,597.8,266.5,596.6,266.5C596.6,266.5,596.6,266.5,596.6,266.5z M394.8,213.8c-9,0-16.2,7.3-16.2,16.2v15.7
			c0,8.9,7.3,16.2,16.2,16.2h199.6v-5.7H405.1c-11.6,0-20.7-6-20.7-13.6v-9.6c0-7.6,9.1-13.6,20.7-13.6h189.3v-5.7H394.8z"/>
		<path class="st5" d="M405.1,221.8c-10.2,0-18.5,5.1-18.5,11.3v9.7c0,6.3,8.3,11.3,18.5,11.3h191.5v-32.3H405.1z"/>
		<path class="st4" d="M596.6,256.3H405.1c-11.6,0-20.7-6-20.7-13.6v-9.6c0-7.6,9.1-13.6,20.7-13.6h191.5c1.2,0,2.2,1,2.2,2.2v32.3
			C598.8,255.3,597.8,256.3,596.6,256.3C596.6,256.3,596.6,256.3,596.6,256.3z M405.1,224c-8.8,0-16.2,4.2-16.2,9.1v9.7
			c0,4.9,7.4,9.1,16.2,9.1h189.3V224H405.1z"/>
		<path class="st4" d="M587.2,232.5H409.9c-1.2,0-2.2-1-2.2-2.2c0-1.2,1-2.2,2.2-2.2h177.3c1.2,0,2.2,1,2.2,2.2
			C589.4,231.5,588.4,232.5,587.2,232.5z"/>
		<path class="st4" d="M587.2,239.4H409.9c-1.2,0-2.2-1-2.2-2.2c0-1.2,1-2.2,2.2-2.2h177.3c1.2,0,2.2,1,2.2,2.2
			C589.4,238.4,588.4,239.4,587.2,239.4z"/>
		<path class="st4" d="M587.2,247.9H409.9c-1.2,0-2.2-1-2.2-2.2c0-1.2,1-2.2,2.2-2.2h177.3c1.2,0,2.2,1,2.2,2.2
			C589.4,246.9,588.4,247.9,587.2,247.9z"/>
		<path class="st6" d="M420.2,190.1v-9.7c0-6.3,8.3-11.3,18.5-11.3h191.6v-10.2H428.4c-10.2,0-18.5,8.3-18.5,18.5l0,0v15.7
			c0,10.2,8.3,18.5,18.5,18.5l0,0h201.8v-10.2H438.7C428.5,201.4,420.2,196.3,420.2,190.1z"/>
		<path class="st4" d="M630.2,213.8H428.4c-11.4,0-20.7-9.3-20.7-20.7v-15.7c0-11.4,9.3-20.7,20.7-20.7h201.8c1.2,0,2.2,1,2.2,2.2
			v10.2c0,1.2-1,2.2-2.2,2.2H438.7c-8.8,0-16.2,4.2-16.2,9.1v9.7c0,4.9,7.4,9.1,16.2,9.1h191.6c1.2,0,2.2,1,2.2,2.2v10.2
			C632.5,212.8,631.5,213.8,630.2,213.8C630.2,213.8,630.2,213.8,630.2,213.8z M428.4,161.2c-9,0-16.2,7.3-16.2,16.2v15.7
			c0,9,7.3,16.2,16.2,16.2H628v-5.7H438.7c-11.6,0-20.7-6-20.7-13.6v-9.7c0-7.6,9.1-13.6,20.7-13.6H628v-5.7L428.4,161.2z"/>
		<path class="st5" d="M438.7,169.1c-10.2,0-18.5,5.1-18.5,11.3v9.7c0,6.3,8.3,11.3,18.5,11.3h191.6v-32.3H438.7z"/>
		<path class="st4" d="M630.2,203.7H438.7c-11.6,0-20.7-6-20.7-13.6v-9.7c0-7.6,9.1-13.6,20.7-13.6h191.6c1.2,0,2.2,1,2.2,2.2v32.3
			C632.5,202.6,631.5,203.7,630.2,203.7C630.2,203.7,630.2,203.7,630.2,203.7z M438.7,171.3c-8.8,0-16.2,4.2-16.2,9.1v9.7
			c0,4.9,7.4,9.1,16.2,9.1H628v-27.8H438.7z"/>
		<path class="st4" d="M620.8,179.8H443.5c-1.2,0-2.2-1-2.2-2.2c0-1.2,1-2.2,2.2-2.2h177.3c1.2,0,2.2,1,2.2,2.2
			S622.1,179.8,620.8,179.8C620.8,179.8,620.8,179.8,620.8,179.8z"/>
		<path class="st4" d="M620.8,186.7H443.5c-1.2,0-2.2-1-2.2-2.2s1-2.2,2.2-2.2c0,0,0,0,0,0h177.3c1.2,0,2.2,1,2.2,2.2
			S622.1,186.7,620.8,186.7C620.8,186.7,620.8,186.7,620.8,186.7z"/>
		<path class="st4" d="M620.8,195.2H443.5c-1.2,0-2.2-1-2.2-2.2c0-1.2,1-2.2,2.2-2.2h177.3c1.2,0,2.2,1,2.2,2.2
			S622.1,195.2,620.8,195.2C620.8,195.2,620.8,195.2,620.8,195.2z"/>
		<polygon class="st7" points="131.5,102 157.4,150.4 168.4,144.4 142.5,96.1 		"/>
		<path class="st4" d="M157.4,152.6c-0.8,0-1.6-0.4-2-1.2l-25.9-48.3c-0.6-1.1-0.2-2.4,0.9-3l11-5.9c1.1-0.6,2.4-0.2,3,0.9
			l25.9,48.4c0.6,1.1,0.2,2.4-0.9,3l-11.1,5.9C158,152.5,157.7,152.6,157.4,152.6z M134.5,102.9l23.8,44.4l7.1-3.8l-23.8-44.4
			L134.5,102.9z"/>
		<polygon class="st8" points="142.5,96.1 168.4,144.4 179.5,138.5 153.6,90.1 		"/>
		<path class="st4" d="M168.4,146.7c-0.8,0-1.6-0.4-2-1.2l-25.9-48.4c-0.6-1.1-0.2-2.4,0.9-3l11-5.9c1.1-0.6,2.4-0.2,3,0.9
			l25.9,48.4c0.6,1.1,0.2,2.4-0.9,3l-11.1,5.9C169.1,146.6,168.8,146.7,168.4,146.7z M145.6,97l23.8,44.4l7.1-3.8l-23.8-44.5
			L145.6,97z"/>
		<path class="st6" d="M250.8,69.2C237.3,44,206,34.5,180.8,48c-15.7,8.4-26,24.3-27.2,42.1l25.9,48.4c24.8,14.2,56.4,5.6,70.6-19.2
			C259,103.9,259.2,84.9,250.8,69.2L250.8,69.2z"/>
		<path class="st4" d="M205.2,147.6c-9.4,0-18.7-2.5-26.8-7.2c-0.4-0.2-0.7-0.5-0.9-0.9l-25.9-48.4c-0.2-0.4-0.3-0.8-0.3-1.2
			c2.1-29.8,27.8-52.2,57.6-50.2c18.5,1.3,35.1,12,43.9,28.3l0,0c14.1,26.3,4.2,59-22.1,73.1C222.9,145.4,214.1,147.6,205.2,147.6
			L205.2,147.6z M181.2,136.9c23.9,13.3,54,4.7,67.3-19.2c8.2-14.7,8.3-32.6,0.4-47.4l0,0c-12.9-24.1-42.9-33.2-67-20.3
			c-14.9,7.9-24.7,22.9-26,39.7L181.2,136.9z"/>
		<polygon class="st9" points="118,109.2 123.7,119.9 138.1,146.8 143.9,157.6 157.4,150.4 131.5,102 		"/>
		<path class="st4" d="M143.9,159.8c-0.8,0-1.6-0.4-2-1.2L116,110.3c-0.6-1.1-0.2-2.4,0.9-3l13.5-7.3c1.1-0.6,2.4-0.2,3,0.9
			l25.9,48.3c0.6,1.1,0.2,2.4-0.9,3l-13.4,7.3C144.7,159.7,144.3,159.8,143.9,159.8z M121,110.1l23.8,44.4l9.5-5.1L130.6,105
			L121,110.1z"/>
		<path class="st10" d="M121.6,121c-7.5,4-10.3,13.2-6.3,20.7S128.5,152,136,148l0,0l2.1-1.1l-14.4-27L121.6,121z"/>
		<path class="st4" d="M128.8,152c-1.7,0-3.4-0.3-5.1-0.8c-9.3-2.8-14.5-12.6-11.7-21.8c1.3-4.4,4.4-8.2,8.5-10.4l2.1-1.2
			c1.1-0.6,2.4-0.2,3,0.9l14.4,26.9c0.6,1.1,0.2,2.4-0.9,3l-2.1,1.3C134.5,151.3,131.7,152,128.8,152z M122.8,122.9l-0.2,0.1l0,0
			c-6.4,3.4-8.7,11.3-5.3,17.7c3.4,6.4,11.3,8.7,17.7,5.3l0.2-0.1L122.8,122.9z M121.6,121L121.6,121z"/>
		<path class="st4" d="M166.5,116.4c-1.2,0-2.2-1-2.3-2.2c0-0.8,0.5-1.6,1.2-2l32.4-17.3l7.5-24.8c0.4-1.2,1.6-1.9,2.8-1.5
			s1.9,1.6,1.5,2.8l0,0L201.8,97c-0.2,0.6-0.6,1-1.1,1.3l-33.2,17.8C167.2,116.3,166.8,116.4,166.5,116.4z"/>
		<path class="st4" d="M225.9,106.6c-0.2,0-0.4,0-0.6-0.1L199,98.5c-1.2-0.4-1.9-1.6-1.5-2.8c0.4-1.2,1.6-1.9,2.8-1.5l0,0l26.2,7.9
			c1.2,0.3,1.9,1.6,1.5,2.8C227.7,105.9,226.9,106.6,225.9,106.6z"/>
		<path class="st1" d="M236.6,75.4c-0.8,0-1.6-0.4-2-1.2l-4.6-8.7c-0.6-1.1-0.2-2.5,0.9-3.1c1.1-0.6,2.5-0.2,3.1,0.9l4.6,8.7
			c0.6,1.1,0.2,2.4-0.9,3C237.4,75.3,237,75.4,236.6,75.4L236.6,75.4z"/>
		<path class="st1" d="M177.4,83.2c-0.8,0-1.6-0.4-2-1.2l-20.5-38.4c-0.6-1.1-0.2-2.5,0.9-3.1c1.1-0.6,2.5-0.2,3.1,0.9l20.6,38.4
			c0.6,1.1,0.2,2.4-0.9,3C178.2,83.1,177.8,83.2,177.4,83.2L177.4,83.2z"/>
		<path class="st1" d="M202.6,123.9c-0.8,0-1.6-0.4-2-1.2l-3.3-6.2c-0.6-1.1-0.2-2.5,0.9-3.1c1.1-0.6,2.5-0.2,3.1,0.9l3.3,6.2
			c0.6,1.1,0.2,2.4-0.9,3C203.3,123.8,202.9,123.9,202.6,123.9z"/>
		<path class="st1" d="M197.2,69c-0.8,0-1.6-0.4-2-1.2l-5-9.3c-0.6-1.1-0.2-2.5,0.9-3.1c1.1-0.6,2.5-0.2,3.1,0.9l5,9.3
			c0.6,1.1,0.2,2.4-0.9,3C198,68.9,197.6,69,197.2,69z"/>
		<line class="st11" x1="172.8" y1="100" x2="181.9" y2="116.9"/>
		<path class="st4" d="M181.9,119.1c-0.8,0-1.6-0.4-2-1.2l-9-16.9c-0.6-1.1-0.2-2.5,0.9-3.1c1.1-0.6,2.5-0.2,3.1,0.9l9,16.9
			c0.6,1.1,0.2,2.4-0.9,3C182.6,119.1,182.2,119.1,181.9,119.1z"/>
		<path class="st1" d="M226.1,126.5c-0.8,0-1.6-0.4-2-1.2l-3.1-5.9c-0.6-1.1-0.2-2.5,0.9-3.1c1.1-0.6,2.5-0.2,3.1,0.9l3.1,5.9
			c0.6,1.1,0.2,2.4-0.9,3C226.8,126.4,226.4,126.5,226.1,126.5z"/>
		<path class="st6" d="M394.6,170.1h-96c-10.4,0-19.2-8-20.1-18.4c0,0.6-0.1,1.2-0.1,1.8v46.3c0,13.1,10.7,23.8,23.8,23.8H391
			c13.1,0,23.8-10.7,23.8-23.8v-46.3c0-0.6,0-1.2-0.1-1.8C413.7,162.1,405,170.1,394.6,170.1z"/>
		<path class="st4" d="M391,225.5h-88.8c-14.2,0-25.7-11.5-25.7-25.7v-46.3c0-0.6,0-1.2,0.1-1.9c0.1-1,0.9-1.7,1.9-1.8
			c1,0,1.8,0.7,1.9,1.7c0.8,9.5,8.7,16.7,18.2,16.7h96.1c9.5,0,17.4-7.2,18.2-16.7c0.1-1,1-1.8,2.1-1.7c0.9,0.1,1.6,0.8,1.7,1.7
			c0,0.7,0.1,1.3,0.1,1.9v46.3C416.6,214,405.1,225.5,391,225.5z M280.2,162.3v37.6c0,12.1,9.8,21.9,21.9,21.9H391
			c12.1,0,21.9-9.8,21.9-21.9v-37.6c-4.1,6.1-11,9.8-18.3,9.7h-96C291.2,172,284.3,168.4,280.2,162.3z"/>
		<path class="st12" d="M298.5,170.1h96c10.4,0,19.2-8,20.1-18.4c-0.9-12.4-11.3-22-23.7-22h-88.8c-12.4,0-22.8,9.6-23.7,22
			C279.3,162.1,288.1,170.1,298.5,170.1z"/>
		<path class="st4" d="M394.6,172h-96c-11.5,0.1-21-8.7-22-20.1c0-0.1,0-0.2,0-0.3c1.1-13.4,12.2-23.7,25.6-23.7h88.8
			c13.4,0.1,24.5,10.4,25.6,23.7c0,0.1,0,0.2,0,0.3C415.5,163.3,406,172,394.6,172z M280.3,151.7c0.9,9.4,8.8,16.6,18.2,16.5h96
			c9.4,0,17.3-7.1,18.2-16.5c-1-11.3-10.5-20.1-21.8-20.1h-88.8C290.7,131.7,281.3,140.4,280.3,151.7z"/>
		<rect x="329" y="223.6" class="st6" width="35.1" height="83.1"/>
		<path class="st4" d="M364.1,308.6H329c-1,0-1.9-0.8-1.9-1.9v-83.1c0-1,0.8-1.9,1.9-1.9h35.1c1,0,1.9,0.8,1.9,1.9v83.1
			C365.9,307.8,365.1,308.6,364.1,308.6z M330.9,304.9h31.3v-79.4h-31.3V304.9z"/>
		<path class="st13" d="M414.7,321.7c0-8.2-6.7-14.9-15-15H293.4c-8.2,0-14.9,6.7-15,15v63.4h136.3L414.7,321.7L414.7,321.7z"/>
		<path class="st4" d="M414.8,387H278.4c-1,0-1.9-0.8-1.9-1.9v-63.4c0-9.3,7.5-16.8,16.8-16.8h106.4c9,0,16.5,7.2,16.8,16.2
			c0.1,0.2,0.1,0.4,0.1,0.6v63.4C416.6,386.2,415.8,387,414.8,387z M280.3,383.3h132.6v-61c-0.1-0.2-0.1-0.4-0.1-0.5
			c0-7.2-5.9-13.1-13.1-13.1H293.4c-7.2,0-13.1,5.9-13.1,13.1V383.3z M416.5,321.7L416.5,321.7z"/>
		<rect x="302.4" y="326.3" class="st14" width="88.4" height="35.5"/>
		<path class="st4" d="M390.8,363.7h-88.4c-1,0-1.9-0.8-1.9-1.9v-35.5c0-1,0.8-1.9,1.9-1.9h88.4c1,0,1.9,0.8,1.9,1.9v35.5
			C392.6,362.9,391.8,363.7,390.8,363.7z M304.2,360h84.7v-31.8h-84.7V360z"/>
		<path class="st1" d="M337,298.4c-1,0-1.9-0.8-1.9-1.9V232c0-1,0.8-1.9,1.9-1.9c1,0,1.9,0.8,1.9,1.9c0,0,0,0,0,0v64.6
			C338.9,297.6,338,298.4,337,298.4z"/>
		<path class="st1" d="M346.5,298.4c-1,0-1.9-0.8-1.9-1.9V232c0-1,0.8-1.9,1.9-1.9c1,0,1.9,0.8,1.9,1.9c0,0,0,0,0,0v64.6
			C348.4,297.6,347.6,298.4,346.5,298.4z"/>
		<path class="st1" d="M356.1,298.4c-1,0-1.9-0.8-1.9-1.9V232c0-1,0.8-1.9,1.9-1.9c1,0,1.9,0.8,1.9,1.9c0,0,0,0,0,0v64.6
			C358,297.6,357.1,298.4,356.1,298.4z"/>
		<path class="st15" d="M348.5,338h-36.1c-1,0-1.9-0.8-1.9-1.9c0-1,0.8-1.9,1.9-1.9h36.1c1,0,1.9,0.8,1.9,1.9
			C350.3,337.2,349.5,338,348.5,338z"/>
		<path class="st15" d="M365.9,338h-9.8c-1,0-1.9-0.8-1.9-1.9c0-1,0.8-1.9,1.9-1.9h9.8c1,0,1.9,0.8,1.9,1.9
			C367.7,337.2,366.9,338,365.9,338L365.9,338z"/>
		<path class="st15" d="M378.2,352.8h-65.9c-1,0-1.9-0.8-1.9-1.9c0-1,0.8-1.9,1.9-1.9h65.9c1,0,1.9,0.8,1.9,1.9
			C380.1,352,379.2,352.8,378.2,352.8z"/>
		<path class="st14" d="M304.5,317.5H293c-1,0-1.9-0.8-1.9-1.9c0-1,0.8-1.9,1.9-1.9c0,0,0,0,0,0h11.5c1,0,1.9,0.8,1.9,1.9
			C306.3,316.7,305.5,317.5,304.5,317.5L304.5,317.5z"/>
		<path class="st14" d="M359.1,380h-25.9c-1,0-1.9-0.8-1.9-1.9c0-1,0.8-1.9,1.9-1.9c0,0,0,0,0,0h25.9c1,0,1.9,0.8,1.9,1.9
			C360.9,379.2,360.1,380,359.1,380C359.1,380,359.1,380,359.1,380z"/>
		<path class="st14" d="M395.2,372.4h-29.3c-1,0-1.9-0.8-1.9-1.9c0-1,0.8-1.9,1.9-1.9h29.3c1,0,1.9,0.8,1.9,1.9
			C397.1,371.5,396.2,372.4,395.2,372.4z"/>
		<path class="st14" d="M293,355.2h-3.4c-1,0-1.9-0.8-1.9-1.9c0-1,0.8-1.9,1.9-1.9h3.4c1,0,1.9,0.8,1.9,1.9
			C294.9,354.3,294,355.2,293,355.2z"/>
		<path class="st14" d="M315.3,373.7H293c-1,0-1.9-0.8-1.9-1.9c0-1,0.8-1.9,1.9-1.9c0,0,0,0,0,0h22.3c1,0,1.9,0.8,1.9,1.9
			C317.2,372.8,316.4,373.7,315.3,373.7C315.3,373.7,315.3,373.7,315.3,373.7L315.3,373.7z"/>
		<path class="st14" d="M395.2,317.5h-26.1c-1,0-1.9-0.8-1.9-1.9c0-1,0.8-1.9,1.9-1.9c0,0,0,0,0,0h26.1c1,0,1.9,0.8,1.9,1.9
			C397.1,316.7,396.2,317.5,395.2,317.5z"/>
		<path class="st14" d="M403.3,342.6h-5.1c-1,0-1.9-0.8-1.9-1.9c0-1,0.8-1.9,1.9-1.9h5.1c1,0,1.9,0.8,1.9,1.9
			C405.1,341.8,404.3,342.6,403.3,342.6z"/>
		<path class="st12" d="M286,190.6c-1,0-1.9-0.8-1.9-1.9v-13c0-1,0.8-1.9,1.9-1.9c1,0,1.9,0.8,1.9,1.9c0,0,0,0,0,0v13
			C287.9,189.8,287,190.6,286,190.6z"/>
		<path class="st12" d="M286,204.1c-1,0-1.9-0.8-1.9-1.9v-7c0-1,0.8-1.9,1.9-1.9c1,0,1.9,0.8,1.9,1.9c0,0,0,0,0,0v7
			C287.9,203.3,287,204.1,286,204.1z"/>
		<g>
			<defs>
				<polygon id="SVGID_1_" points="292.8,169.3 400.2,169.3 400.2,16 263.3,16 263.3,117.9 274.5,117.9 				"/>
			</defs>
			<clipPath id="SVGID_2_">
				<use xlink:href="#SVGID_1_"  style="overflow:visible;"/>
			</clipPath>
			<g class="st16">
				<polygon class="st17" points="350.6,61.4 348.4,75.7 358.8,77.3 348.4,75.7 345.9,91.7 351.1,92.5 345.9,91.7 343.6,106.5 
					354,108.1 343.6,106.5 341.2,121.6 346.4,122.4 341.2,121.6 339,136.2 349.3,137.8 339,136.2 336.6,151 341.8,151.8 336.6,151 
					334.2,166.7 344.5,168.3 334.2,166.7 331.8,181.8 361.2,186.4 380,66 				"/>
				<path class="st4" d="M361.2,188.3h-0.3l-29.4-4.6c-1-0.2-1.7-1.1-1.5-2.2c0,0,0,0,0,0l2.4-15.1l0,0l2.5-15.7l0,0l2.3-14.8l0,0
					l2.3-14.6l0,0l2.4-15.1l0,0l2.3-14.8l0,0l2.5-16l0,0l2.2-14.3c0.2-1,1.1-1.7,2.1-1.6l29.4,4.6c1,0.2,1.7,1.1,1.6,2.1
					c0,0,0,0,0,0L363,186.7C362.9,187.6,362.1,188.3,361.2,188.3L361.2,188.3z M333.9,180.3l25.7,4l18.3-116.7l-25.7-4l-1.7,10.6
					l8.5,1.3c1,0.2,1.7,1.2,1.4,2.2c-0.2,0.9-1.1,1.6-2,1.5l-8.5-1.3l-1.9,12.3l3.3,0.5c1,0.2,1.7,1.2,1.4,2.2
					c-0.2,0.9-1.1,1.6-2,1.5l-3.3-0.5l-1.7,11.2l8.5,1.3c1,0.2,1.7,1.2,1.4,2.2c-0.2,0.9-1.1,1.6-2,1.5l-8.5-1.3l-1.8,11.4l3.3,0.5
					c1,0.2,1.7,1.2,1.4,2.2c-0.2,0.9-1.1,1.6-2,1.5l-3.3-0.5l-1.7,10.9l8.5,1.3c1,0.2,1.7,1.2,1.4,2.2c-0.2,0.9-1.1,1.6-2,1.5
					l-8.5-1.3l-1.7,11.1l3.3,0.5c1,0.2,1.7,1.2,1.4,2.2c-0.2,0.9-1.1,1.6-2,1.5l-3.3-0.5l-1.9,12l8.5,1.3c1,0.2,1.7,1.2,1.4,2.2
					c-0.2,0.9-1.1,1.6-2,1.5l-8.5-1.3L333.9,180.3z"/>
				<path class="st4" d="M310.5,206.2c-1.8,0-3.5-1.2-4-2.9l-1.9-5.9c-0.7-2.2,0.5-4.5,2.7-5.2l8.4-2.6c2.2-0.7,4.5,0.5,5.2,2.7
					l1.9,5.9c0.7,2.2-0.5,4.5-2.7,5.2l-8.3,2.6C311.3,206.1,310.9,206.2,310.5,206.2z M317,190.8c-0.3,0-0.5,0-0.8,0.1l-8.4,2.6
					c-1.4,0.4-2.2,1.9-1.7,3.3c0,0,0,0,0,0l1.9,5.9c0.4,1.4,1.9,2.2,3.3,1.7l8.4-2.6c1.4-0.4,2.2-1.9,1.7-3.3l-1.9-5.9
					C319.2,191.6,318.2,190.8,317,190.8L317,190.8z"/>
				<polygon class="st18" points="288.1,90.3 273.3,94.9 305.1,196.3 305.2,196.3 319.9,191.7 320,191.7 				"/>
				<path class="st4" d="M305.1,198.2c-0.3,0-0.6-0.1-0.9-0.2c-0.5-0.2-0.8-0.6-1-1.1L271.5,95.5c-0.3-1,0.2-2,1.2-2.3l14.9-4.7
					c1-0.3,2,0.2,2.3,1.2l31.8,101.4c0.3,1-0.2,2-1.2,2.3c0,0,0,0,0,0l-14.7,4.6C305.6,198.1,305.4,198.2,305.1,198.2z M275.6,96.2
					l30.7,97.8l11.3-3.6l-30.7-97.8L275.6,96.2z"/>
				<path class="st19" d="M305.3,197.1l1.9,5.9c0.6,1.8,2.5,2.8,4.3,2.2c0,0,0,0,0,0l8.4-2.6c1.8-0.6,2.8-2.5,2.2-4.3c0,0,0,0,0,0
					l-1.9-5.9c-0.1-0.3-0.2-0.5-0.4-0.8l-14.6,4.6C305.2,196.6,305.3,196.9,305.3,197.1z"/>
				<path class="st4" d="M310.5,207.3c-2.3,0-4.3-1.5-5-3.7l-1.9-5.9l0,0c-0.1-0.4-0.2-0.9-0.2-1.3c0-0.9,0.5-1.6,1.3-1.9l14.6-4.6
					c0.8-0.3,1.7,0.1,2.1,0.8c0.2,0.4,0.4,0.8,0.6,1.2l1.9,5.9c0.9,2.8-0.7,5.7-3.5,6.6l-8.4,2.6C311.5,207.3,311,207.3,310.5,207.3
					z M307.5,197.6l1.6,5c0.1,0.4,0.4,0.7,0.8,0.9c0.4,0.2,0.8,0.2,1.2,0.1l8.4-2.6c0.8-0.3,1.3-1.1,1-1.9c0,0,0,0,0,0l-1.6-5
					L307.5,197.6z"/>
				
					<rect x="271.6" y="84" transform="matrix(0.9541 -0.2995 0.2995 0.9541 -13.6608 87.7476)" class="st19" width="15.6" height="8.8"/>
				<path class="st4" d="M273.3,96.8c-0.8,0-1.5-0.5-1.8-1.3l-2.6-8.4c-0.3-1,0.2-2,1.2-2.3l14.9-4.7c1-0.3,2,0.2,2.3,1.2l2.6,8.4
					c0.3,1-0.2,2-1.2,2.3l-14.9,4.7C273.6,96.8,273.5,96.8,273.3,96.8z M273,87.8l1.5,4.8l11.3-3.6l-1.5-4.8L273,87.8z"/>
				<polygon class="st20" points="273.1,68.6 273.1,68.6 270.6,86.6 285.5,81.9 				"/>
				<path class="st4" d="M270.6,88.4c-1,0-1.9-0.8-1.9-1.9c0-0.1,0-0.2,0-0.3l2.5-18c0.2-1,1.1-1.7,2.1-1.6c0.4,0.1,0.8,0.3,1.1,0.6
					l12.4,13.3c0.7,0.8,0.7,1.9-0.1,2.6c-0.2,0.2-0.4,0.3-0.7,0.4l-14.9,4.7C271,88.4,270.8,88.4,270.6,88.4z M274.5,72.7l-1.6,11.2
					l9.2-2.9L274.5,72.7z"/>
				<line class="st11" x1="282.8" y1="99.4" x2="285.9" y2="109.2"/>
				<path class="st4" d="M285.9,111.1c-0.8,0-1.5-0.5-1.8-1.3l-3.1-9.9c-0.4-1,0.1-2,1.1-2.4c1-0.4,2,0.1,2.4,1.1
					c0,0.1,0.1,0.2,0.1,0.2l3.1,9.9c0.3,1-0.2,2-1.2,2.3C286.3,111.1,286.1,111.1,285.9,111.1L285.9,111.1z"/>
				<line class="st11" x1="301.8" y1="159.9" x2="312.5" y2="194"/>
				<path class="st4" d="M312.5,195.9c-0.8,0-1.5-0.5-1.8-1.3L300,160.5c-0.3-1,0.2-2,1.2-2.3s2,0.2,2.3,1.2l10.7,34.1
					c0.3,1-0.2,2-1.2,2.3C312.9,195.8,312.7,195.9,312.5,195.9L312.5,195.9z"/>
				<path class="st19" d="M322.3,198h-8c-5.2,0-9.4-6.8-9.4-15.3L304.6,24h-8.4l0.3,167.2c0,8.4,6.9,15.3,15.3,15.3c0,0,0,0,0,0h13
					c8.4,0,15.3-6.9,15.3-15.3c0,0,0,0,0,0L339.9,24h-8.4l0.3,158.7C331.7,191.1,327.5,198,322.3,198z"/>
				<path class="st4" d="M311.8,208.4c-9.5,0-17.1-7.7-17.2-17.1l-0.3-167.2c0-1,0.8-1.9,1.9-1.9h8.4c1,0,1.9,0.8,1.9,1.9l0.3,158.7
					c0,7.3,3.5,13.4,7.5,13.4h8c1.8,0,3.6-1.3,5-3.6c1.7-3,2.5-6.4,2.5-9.8L329.5,24c0-1,0.8-1.9,1.9-1.9h8.4l0,0
					c1,0,1.9,0.8,1.9,1.9c0,0,0,0,0,0l0.3,167.2c0,9.5-7.7,17.2-17.1,17.2L311.8,208.4L311.8,208.4z M298.1,26l0.3,165.3
					c0,7.4,6,13.4,13.4,13.4l0,0h13c7.4,0,13.4-6,13.4-13.5L338,25.9h-4.7l0.3,156.8c0.1,4.1-1,8.2-3,11.8c-2.1,3.5-5,5.4-8.2,5.4
					h-8c-6.3,0-11.2-7.5-11.3-17.1l-0.3-156.8L298.1,26z"/>
				<path class="st5" d="M304.9,182.7c0,8.4,4.2,15.3,9.4,15.3h8c5.2,0,9.4-6.9,9.4-15.3L331.4,24h-26.8L304.9,182.7z"/>
				<path class="st4" d="M314.3,199.9c-6.3,0-11.2-7.5-11.3-17.1l0,0l-0.3-158.7c0-1,0.8-1.9,1.9-1.9h26.8l0,0c1,0,1.8,0.8,1.9,1.8
					l0.3,158.7c0.1,4.1-1,8.2-3,11.8c-2.1,3.5-5,5.4-8.2,5.4L314.3,199.9L314.3,199.9z M306.8,182.7c0,7.3,3.5,13.4,7.5,13.4h8
					c1.8,0,3.6-1.3,5-3.6c1.7-3,2.5-6.4,2.5-9.8l-0.3-156.8h-23L306.8,182.7z"/>
				<path class="st4" d="M311.9,180.6c-1,0-1.9-0.8-1.9-1.8c0,0,0,0,0,0l-0.2-146.8c0-1,0.8-1.9,1.9-1.9l0,0c1,0,1.9,0.8,1.9,1.9
					l0.2,146.8C313.8,179.7,313,180.6,311.9,180.6L311.9,180.6z"/>
				<path class="st4" d="M317.6,180.6c-1,0-1.9-0.8-1.9-1.9l-0.2-146.8c0-1,0.8-1.8,1.9-1.8l0,0c1,0,1.9,0.8,1.9,1.9l0.2,146.8
					C319.5,179.7,318.7,180.6,317.6,180.6L317.6,180.6z"/>
				<path class="st4" d="M324.7,180.5c-1,0-1.9-0.8-1.9-1.9l-0.2-146.8c0-1,0.8-1.8,1.9-1.8l0,0c1,0,1.9,0.8,1.9,1.9l0.2,146.8
					C326.5,179.7,325.7,180.6,324.7,180.5L324.7,180.5z"/>
				<path class="st21" d="M367.4,134.9c-1.8,0-3.6,0.2-5.3,0.5c-16.3-3.1-32,7.6-35.1,23.8s7.6,32,23.8,35.1c3.7,0.7,7.6,0.7,11.3,0
					c16.3,3.2,32-7.4,35.2-23.6c3.2-16.3-7.4-32-23.6-35.2C371.7,135.1,369.6,134.9,367.4,134.9L367.4,134.9z"/>
				<path class="st4" d="M367.4,196.7c-1.8,0-3.6-0.2-5.3-0.5c-1.8,0.3-3.5,0.5-5.3,0.5c-17.6,0-31.8-14.3-31.8-31.8
					s14.3-31.8,31.8-31.8l0,0c1.8,0,3.6,0.2,5.3,0.5c1.8-0.3,3.5-0.5,5.3-0.5c17.6,0,31.8,14.3,31.8,31.8S385,196.7,367.4,196.7z
					 M362.1,192.5h0.3c15.3,2.8,29.9-7.3,32.7-22.5s-7.3-29.9-22.5-32.7c-3.4-0.6-6.8-0.6-10.2,0c-0.2,0-0.4,0-0.7,0
					c-15.3-2.8-29.9,7.2-32.8,22.5c-2.8,15.3,7.2,29.9,22.5,32.8c3.4,0.6,6.9,0.6,10.3,0H362.1z"/>
				<path class="st4" d="M362.1,137.3c-0.7,0-1.4-0.4-1.7-1.1c-0.2-0.5-5.3-12.7-0.1-31.6c0.2-1,1.2-1.6,2.2-1.4
					c1,0.2,1.6,1.2,1.4,2.2c0,0.1,0,0.1,0,0.2c-4.8,17.5-0.1,29-0.1,29.2c0.4,1,0,2-1,2.5C362.6,137.2,362.4,137.3,362.1,137.3
					L362.1,137.3z"/>
				<path class="st22" d="M396.4,121.1c0,0-33.8-17.5-35.3,12.3C361.1,133.5,378.5,154,396.4,121.1z"/>
				<path class="st4" d="M374.3,141.7c-8.6,0-14.3-6.7-14.6-7c-0.3-0.4-0.5-0.8-0.4-1.3c0.4-8.3,3.2-14,8.4-16.9
					c11.1-6.4,28.9,2.6,29.6,3c0.9,0.5,1.3,1.6,0.8,2.5c0,0,0,0,0,0c-6.6,12.2-14,18.7-22.1,19.6
					C375.4,141.6,374.8,141.7,374.3,141.7z M363,132.8c1.5,1.5,6.4,5.7,12.6,5.1s12.5-6,18.2-15.9c-4.5-2-16.7-6.6-24.3-2.3
					C365.7,121.9,363.5,126.3,363,132.8z"/>
				<line class="st11" x1="385.7" y1="124.9" x2="361.1" y2="133.5"/>
				<path class="st4" d="M361.1,135.3c-1,0-1.9-0.8-1.9-1.9c0-0.8,0.5-1.5,1.2-1.7l24.6-8.6c1-0.3,2,0.2,2.3,1.2
					c0.3,0.9-0.2,2-1.1,2.3l-24.6,8.6C361.5,135.3,361.3,135.3,361.1,135.3z"/>
				<path class="st4" d="M383.4,132.8c-0.3,0-0.7-0.1-1-0.3l-5.5-3.3c-0.7-0.4-1-1.2-0.9-2l1.1-5.7c0.2-1,1.2-1.7,2.2-1.5
					c1,0.2,1.7,1.2,1.5,2.2l-0.9,4.4l4.4,2.6c0.9,0.5,1.2,1.7,0.7,2.6C384.7,132.4,384,132.7,383.4,132.8L383.4,132.8z"/>
				<path class="st4" d="M375.4,135.6c-0.3,0-0.7-0.1-1-0.3l-5.5-3.3c-0.7-0.4-1-1.2-0.9-2l1.1-5.7c0.2-1,1.2-1.7,2.2-1.5
					s1.7,1.2,1.5,2.2c0,0,0,0,0,0l-0.9,4.4l4.4,2.6c0.9,0.5,1.2,1.7,0.7,2.6C376.6,135.3,376,135.6,375.4,135.6L375.4,135.6z"/>
				<path class="st23" d="M336,177.4c-0.9,0-1.7-0.6-1.8-1.5c-5.2-28.8,16.6-34.9,16.8-34.9c1-0.3,2,0.3,2.3,1.3
					c0.3,1-0.3,2-1.3,2.3c-0.8,0.2-18.7,5.4-14.2,30.7c0.2,1-0.5,2-1.5,2.2C336.2,177.3,336.1,177.4,336,177.4z"/>
			</g>
		</g>
		<polygon class="st24" points="515.8,3.7 421.1,51.5 461.3,71.8 515.8,99.3 572.2,70.9 610.7,51.5 		"/>
		<path class="st4" d="M515.8,101.6c-0.3,0-0.7-0.1-1-0.2l-94.6-47.8c-1.1-0.6-1.5-1.9-1-3c0.2-0.4,0.6-0.8,1-1l94.6-47.8
			c0.6-0.3,1.4-0.3,2,0l94.9,47.8c1.1,0.6,1.5,1.9,1,3c-0.2,0.4-0.6,0.8-1,1l-94.9,47.8C516.5,101.5,516.1,101.6,515.8,101.6z
			 M426.1,51.6l89.7,45.2l89.9-45.3L515.8,6.2L426.1,51.6z"/>
		<path class="st10" d="M461.3,71.8v80.3c0,3.4,2.8,6.2,6.2,6.2l0,0H566c3.4,0,6.2-2.8,6.2-6.2V70.9l-56.4,28.4L461.3,71.8z"/>
		<path class="st4" d="M566,160.5h-98.5c-4.6,0-8.4-3.8-8.4-8.4V71.8c0-1.2,1-2.2,2.2-2.2c0.4,0,0.7,0.1,1,0.2l53.5,27l55.3-27.9
			c1.1-0.6,2.5-0.1,3,1c0.2,0.3,0.2,0.7,0.2,1v81.2C574.4,156.7,570.6,160.5,566,160.5z M463.6,75.5v76.6c0,2.2,1.8,3.9,3.9,3.9l0,0
			H566c2.2,0,3.9-1.8,3.9-3.9V74.6l-53.1,26.8c-0.6,0.3-1.4,0.3-2,0L463.6,75.5z"/>
		<path class="st19" d="M617.7,116.2c0,3.9-3.1,7-7,7l0,0c-3.9,0-7-3.1-7-7V95c0-3.9,3.1-7,7-7l0,0c3.9,0,7,3.1,7,7V116.2z"/>
		<path class="st4" d="M610.7,125.4c-5.1,0-9.2-4.1-9.2-9.2V95c0-5.1,4.2-9.3,9.3-9.3c5.1,0,9.3,4.2,9.3,9.3v21.2
			C620,121.3,615.8,125.4,610.7,125.4z M610.7,90.2c-2.6,0-4.8,2.1-4.8,4.8c0,0,0,0,0,0v21.2c0,2.6,2.1,4.8,4.8,4.8
			c2.6,0,4.8-2.1,4.8-4.8V95C615.5,92.4,613.4,90.2,610.7,90.2C610.7,90.2,610.7,90.2,610.7,90.2z"/>
		<line class="st11" x1="610.7" y1="87.9" x2="610.7" y2="51.5"/>
		<path class="st4" d="M610.7,90.2c-1.2,0-2.2-1-2.2-2.2V51.5c0-1.2,1-2.2,2.2-2.2c1.2,0,2.2,1,2.2,2.2c0,0,0,0,0,0v36.4
			C612.9,89.2,611.9,90.2,610.7,90.2z"/>
		<path class="st25" d="M441.8,55.1c-1.2,0-2.2-1-2.2-2.3c0-0.8,0.5-1.6,1.2-2l74.1-38.7c1.1-0.6,2.5-0.1,3,1c0.6,1.1,0.1,2.5-1,3
			l-74.1,38.7C442.6,55.1,442.2,55.1,441.8,55.1z"/>
		<path class="st25" d="M515.9,91.7c-0.3,0-0.7-0.1-1-0.2l-13-6.4c-1.1-0.5-1.7-1.8-1.2-2.9c0.5-1.1,1.8-1.7,2.9-1.2
			c0.1,0,0.2,0.1,0.2,0.1l12.1,5.9l76.3-37.4c1.1-0.5,2.5,0,2.9,1.2c0.4,1,0,2.3-0.9,2.8l-77.3,37.9
			C516.6,91.6,516.3,91.7,515.9,91.7z"/>
		<path class="st26" d="M470.6,121.6c-1.2,0-2.2-1-2.2-2.2V87.9c0-1.2,1-2.2,2.2-2.2c1.2,0,2.2,1,2.2,2.2v31.4
			C472.8,120.6,471.8,121.6,470.6,121.6L470.6,121.6z"/>
		<path class="st26" d="M470.6,139.9c-1.2,0-2.2-1-2.2-2.2v-8.2c0-1.2,1-2.2,2.2-2.2c1.2,0,2.2,1,2.2,2.2v8.2
			C472.8,138.9,471.8,139.9,470.6,139.9L470.6,139.9z"/>
		<path class="st27" d="M481.5,332.6c0,5.7-4.6,10.3-10.3,10.3c0,0,0,0,0,0h-84.1c-5.7,0-10.3-4.6-10.3-10.3c0,0,0,0,0,0l0,0
			c0-5.7,4.6-10.3,10.3-10.3c0,0,0,0,0,0h84.1C476.9,322.4,481.5,327,481.5,332.6C481.5,332.6,481.5,332.6,481.5,332.6z"/>
		<path class="st4" d="M471.2,345.1h-84.1c-6.9,0-12.5-5.6-12.5-12.5s5.6-12.5,12.5-12.5h84.1c6.9,0,12.5,5.6,12.5,12.5
			S478.2,345.1,471.2,345.1L471.2,345.1z M387.1,324.6c-4.4,0-8,3.6-8,8s3.6,8,8,8h84.1c4.4,0,8-3.6,8-8s-3.6-8-8-8H387.1z"/>
		<path class="st13" d="M391.6,342.9c-0.2,1.4-0.4,2.7-0.4,4.1v50.8c0,13.6,11,24.6,24.6,24.6l0,0h26.7c13.6,0,24.6-11,24.6-24.6
			l0,0V347c0-1.4-0.1-2.7-0.4-4.1L391.6,342.9z"/>
		<path class="st4" d="M442.5,424.7h-26.7c-14.8,0-26.8-12.1-26.8-26.9V347c0-1.5,0.1-3,0.4-4.5c0.2-1.1,1.1-1.9,2.2-1.9h75.2
			c1.1,0,2,0.8,2.2,1.9c0.3,1.5,0.4,3,0.4,4.5v50.8C469.4,412.6,457.4,424.7,442.5,424.7z M393.5,345.1c-0.1,0.6-0.1,1.3-0.1,1.9
			v50.8c0,12.4,10,22.4,22.4,22.4h26.7c12.4,0,22.4-10,22.4-22.4V347c0-0.6,0-1.2-0.1-1.9L393.5,345.1z"/>
		<path class="st28" d="M376.1,268.1c0,0,53.6,52.3,53.6,0C429.7,268.1,433.4,224.5,376.1,268.1z"/>
		<path class="st4" d="M415.9,293.6c-16.7,0-40.2-22.8-41.4-23.9c-0.9-0.9-0.9-2.3,0-3.2c0.1-0.1,0.2-0.2,0.3-0.2
			c22.6-17.2,39-23.3,48.7-18c9.3,5.1,8.6,18.4,8.5,19.8c0,13.3-3.5,21.4-10.3,24.3C419.8,293.2,417.9,293.6,415.9,293.6z
			 M379.6,268.3c9.2,8.5,29.8,24.5,40.3,20.1c5-2.1,7.5-8.9,7.5-20.3c0-0.1,0-0.1,0-0.2s0.9-11.8-6.2-15.6
			C415.9,249.4,404.4,249.9,379.6,268.3z"/>
		<path class="st4" d="M429.8,272.3h-40.3c-1.2,0-2.2-1-2.2-2.2c0-1.2,1-2.2,2.2-2.2h40.3c1.2,0,2.2,1,2.2,2.2
			C432,271.3,431,272.3,429.8,272.3z"/>
		<path class="st4" d="M402.4,279.6c-1.2,0-2.2-1-2.2-2.2c0-0.5,0.2-1,0.5-1.4l4.6-6.1l-4.6-5.7c-0.8-1-0.6-2.4,0.4-3.1
			s2.4-0.6,3.1,0.4l5.6,7.1c0.6,0.8,0.6,1.9,0,2.8l-5.6,7.5C403.8,279.2,403.1,279.6,402.4,279.6z"/>
		<path class="st4" d="M414.6,279.6c-1.2,0-2.2-1-2.2-2.2c0-0.5,0.2-1,0.5-1.4l4.6-6.1l-4.6-5.7c-0.8-1-0.6-2.4,0.4-3.1
			s2.4-0.6,3.1,0.4l5.6,7.1c0.6,0.8,0.6,1.9,0,2.8l-5.6,7.5C416,279.2,415.3,279.6,414.6,279.6z"/>
		<path class="st29" d="M409.2,286.5c-1.2,0-2.2-1-2.2-2.2v-2.6c0-1.2,1-2.2,2.2-2.2c1.2,0,2.2,1,2.2,2.2v2.6
			C411.4,285.5,410.4,286.5,409.2,286.5L409.2,286.5z"/>
		<path class="st29" d="M421.8,262.9c-1.2,0-2.2-1-2.2-2.2V258c0-1.2,1-2.2,2.2-2.2c1.2,0,2.2,1,2.2,2.2l0,0v2.6
			C424.1,261.9,423.1,262.9,421.8,262.9L421.8,262.9z"/>
		<path class="st29" d="M394.8,267.6c-1.2,0-2.2-1-2.2-2.2v-2.6c0-1.2,1-2.2,2.2-2.2c1.2,0,2.2,1,2.2,2.2v2.6
			C397.1,266.6,396.1,267.6,394.8,267.6L394.8,267.6z"/>
		<path class="st28" d="M483,272c0,0-53.6-52.3-53.6,0C429.5,272,425.8,315.6,483,272z"/>
		<path class="st4" d="M443.6,293.6c-2.7,0.1-5.5-0.6-7.9-1.9c-9.3-5.1-8.6-18.4-8.5-19.8c0-13.3,3.5-21.4,10.3-24.3
			c16.4-6.9,45.8,21.6,47.1,22.8c0.9,0.9,0.9,2.3,0,3.2c-0.1,0.1-0.2,0.2-0.3,0.2C467.1,287,453.4,293.6,443.6,293.6z M443.4,251
			c-1.4,0-2.8,0.2-4.1,0.8c-5,2.1-7.5,8.9-7.5,20.3c0,0.1,0,0.1,0,0.2s-0.9,11.8,6.2,15.6c5.3,2.9,16.9,2.4,41.7-16
			C471.5,264.4,454.5,251,443.4,251z"/>
		<path class="st4" d="M469.7,272.3h-40.3c-1.2,0-2.2-1-2.2-2.2c0-1.2,1-2.2,2.2-2.2h40.3c1.2,0,2.2,1,2.2,2.2
			C472,271.3,471,272.3,469.7,272.3z"/>
		<path class="st4" d="M456.8,279.6c-0.7,0-1.3-0.3-1.8-0.8l-5.6-7.1c-0.6-0.8-0.6-1.9,0-2.8l5.6-7.5c0.7-1,2.2-1.2,3.1-0.4
			c1,0.7,1.2,2.2,0.4,3.1l0,0l-4.6,6.1l4.6,5.7c0.8,1,0.6,2.4-0.3,3.1C457.8,279.4,457.3,279.6,456.8,279.6L456.8,279.6z"/>
		<path class="st4" d="M444.5,279.6c-0.7,0-1.3-0.3-1.8-0.8l-5.6-7.1c-0.6-0.8-0.6-1.9,0-2.8l5.6-7.5c0.7-1,2.2-1.2,3.1-0.4
			c1,0.7,1.2,2.2,0.4,3.1l0,0l-4.6,6.1l4.5,5.8c0.8,1,0.6,2.4-0.3,3.1C445.6,279.5,445.1,279.6,444.5,279.6L444.5,279.6z"/>
		<path class="st29" d="M450,260.8c-1.2,0-2.2-1-2.2-2.2v-2.6c0-1.2,1-2.2,2.2-2.2c1.2,0,2.2,1,2.2,2.2l0,0v2.6
			C452.2,259.7,451.2,260.8,450,260.8L450,260.8z"/>
		<path class="st29" d="M437.4,284.4c-1.2,0-2.2-1-2.2-2.2v-2.6c0-1.2,1-2.2,2.2-2.2c1.2,0,2.2,1,2.2,2.2v2.6
			C439.6,283.3,438.6,284.4,437.4,284.4L437.4,284.4z"/>
		<path class="st29" d="M464.4,279.6c-1.2,0-2.2-1-2.2-2.2v-2.6c0-1.2,1-2.2,2.2-2.2c1.2,0,2.2,1,2.2,2.2v2.6
			C466.6,278.6,465.6,279.6,464.4,279.6L464.4,279.6z"/>
		<path class="st4" d="M429.5,324.6c-1.2,0-2.2-1-2.2-2.2V272c0-1.2,1-2.2,2.2-2.2c1.2,0,2.2,1,2.2,2.2v50.3
			C431.7,323.6,430.7,324.6,429.5,324.6C429.5,324.6,429.5,324.6,429.5,324.6z"/>
		<path class="st13" d="M408.1,332.9h-20.7c-1.2,0-2.2-1-2.2-2.2c0-1.2,1-2.2,2.2-2.2l0,0h20.7c1.2,0,2.2,1,2.2,2.2
			C410.3,331.9,409.3,332.9,408.1,332.9z"/>
		<path class="st13" d="M421.8,332.9h-7.2c-1.2,0-2.2-1-2.2-2.2c0-1.2,1-2.2,2.2-2.2h7.2c1.2,0,2.2,1,2.2,2.2
			C424.1,331.9,423.1,332.9,421.8,332.9z"/>
		<path class="st14" d="M400,382c-1.2,0-2.2-1-2.2-2.2v-28.6c0-1.2,1-2.2,2.2-2.2c1.2,0,2.2,1,2.2,2.2v28.6
			C402.2,381,401.2,382,400,382z"/>
		<path class="st14" d="M400,396.5c-1.2,0-2.2-1-2.2-2.2v-5.8c0-1.2,1-2.2,2.2-2.2c1.2,0,2.2,1,2.2,2.2v5.8
			C402.2,395.5,401.2,396.5,400,396.5L400,396.5z"/>
	</g>
</g>
</svg>
